<svg width="20" height="21" viewBox="0 0 20 21" fill="none" xmlns="http://www.w3.org/2000/svg">
<g id="vuesax/outline/buliding">
<g id="buliding">
<path id="Vector" d="M18.3332 19.4584H1.6665C1.32484 19.4584 1.0415 19.175 1.0415 18.8334C1.0415 18.4917 1.32484 18.2084 1.6665 18.2084H18.3332C18.6748 18.2084 18.9582 18.4917 18.9582 18.8334C18.9582 19.175 18.6748 19.4584 18.3332 19.4584Z" fill="#4B5563"/>
<path id="Vector_2" d="M17.5 19.4583H2.5C2.15833 19.4583 1.875 19.175 1.875 18.8333V5.49996C1.875 2.98329 3.31667 1.54163 5.83333 1.54163H14.1667C16.6833 1.54163 18.125 2.98329 18.125 5.49996V18.8333C18.125 19.175 17.8417 19.4583 17.5 19.4583ZM3.125 18.2083H16.875V5.49996C16.875 3.64996 16.0167 2.79163 14.1667 2.79163H5.83333C3.98333 2.79163 3.125 3.64996 3.125 5.49996V18.2083Z" fill="#4B5563"/>
<path id="Vector_3" d="M8.3335 14.875H5.8335C5.49183 14.875 5.2085 14.5917 5.2085 14.25C5.2085 13.9083 5.49183 13.625 5.8335 13.625H8.3335C8.67516 13.625 8.9585 13.9083 8.9585 14.25C8.9585 14.5917 8.67516 14.875 8.3335 14.875Z" fill="#4B5563"/>
<path id="Vector_4" d="M14.1665 14.875H11.6665C11.3248 14.875 11.0415 14.5917 11.0415 14.25C11.0415 13.9083 11.3248 13.625 11.6665 13.625H14.1665C14.5082 13.625 14.7915 13.9083 14.7915 14.25C14.7915 14.5917 14.5082 14.875 14.1665 14.875Z" fill="#4B5563"/>
<path id="Vector_5" d="M8.3335 11.125H5.8335C5.49183 11.125 5.2085 10.8417 5.2085 10.5C5.2085 10.1583 5.49183 9.875 5.8335 9.875H8.3335C8.67516 9.875 8.9585 10.1583 8.9585 10.5C8.9585 10.8417 8.67516 11.125 8.3335 11.125Z" fill="#4B5563"/>
<path id="Vector_6" d="M14.1665 11.125H11.6665C11.3248 11.125 11.0415 10.8417 11.0415 10.5C11.0415 10.1583 11.3248 9.875 11.6665 9.875H14.1665C14.5082 9.875 14.7915 10.1583 14.7915 10.5C14.7915 10.8417 14.5082 11.125 14.1665 11.125Z" fill="#4B5563"/>
<path id="Vector_7" d="M8.3335 7.375H5.8335C5.49183 7.375 5.2085 7.09167 5.2085 6.75C5.2085 6.40833 5.49183 6.125 5.8335 6.125H8.3335C8.67516 6.125 8.9585 6.40833 8.9585 6.75C8.9585 7.09167 8.67516 7.375 8.3335 7.375Z" fill="#4B5563"/>
<path id="Vector_8" d="M14.1665 7.375H11.6665C11.3248 7.375 11.0415 7.09167 11.0415 6.75C11.0415 6.40833 11.3248 6.125 11.6665 6.125H14.1665C14.5082 6.125 14.7915 6.40833 14.7915 6.75C14.7915 7.09167 14.5082 7.375 14.1665 7.375Z" fill="#4B5563"/>
</g>
</g>
</svg>
