<svg width="24" height="24" viewBox="0 0 24 24" fill="none" xmlns="http://www.w3.org/2000/svg">
<g id="bxl:instagram">
<path id="Vector" d="M11.9991 7.66602C10.8493 7.66602 9.74673 8.12274 8.93375 8.93571C8.12078 9.74868 7.66406 10.8513 7.66406 12.001C7.66406 13.1507 8.12078 14.2534 8.93375 15.0663C9.74673 15.8793 10.8493 16.336 11.9991 16.336C13.1488 16.336 14.2514 15.8793 15.0644 15.0663C15.8773 14.2534 16.3341 13.1507 16.3341 12.001C16.3341 10.8513 15.8773 9.74868 15.0644 8.93571C14.2514 8.12274 13.1488 7.66602 11.9991 7.66602ZM11.9991 14.8163C11.6292 14.8163 11.263 14.7435 10.9213 14.602C10.5796 14.4604 10.2692 14.253 10.0077 13.9915C9.74616 13.73 9.53872 13.4195 9.39719 13.0778C9.25566 12.7361 9.18281 12.3699 9.18281 12.0001C9.18281 11.6302 9.25566 11.264 9.39719 10.9223C9.53872 10.5807 9.74616 10.2702 10.0077 10.0087C10.2692 9.74718 10.5796 9.53973 10.9213 9.3982C11.263 9.25667 11.6292 9.18383 11.9991 9.18383C12.746 9.18383 13.4623 9.48054 13.9905 10.0087C14.5186 10.5368 14.8153 11.2532 14.8153 12.0001C14.8153 12.747 14.5186 13.4633 13.9905 13.9915C13.4623 14.5196 12.746 14.8163 11.9991 14.8163Z" fill="white"/>
<path id="Vector_2" d="M16.5057 8.5171C17.0639 8.5171 17.5164 8.06463 17.5164 7.50647C17.5164 6.94832 17.0639 6.49585 16.5057 6.49585C15.9476 6.49585 15.4951 6.94832 15.4951 7.50647C15.4951 8.06463 15.9476 8.5171 16.5057 8.5171Z" fill="white"/>
<path id="Vector_3" d="M19.9998 6.47901C19.7827 5.91856 19.4511 5.40959 19.026 4.98469C18.601 4.5598 18.0919 4.22833 17.5313 4.01151C16.8754 3.76529 16.1824 3.63215 15.482 3.61776C14.5791 3.57839 14.2932 3.56714 12.0038 3.56714C9.71445 3.56714 9.42102 3.56714 8.5257 3.61776C7.82576 3.63141 7.13329 3.76458 6.4782 4.01151C5.91752 4.22808 5.40829 4.55945 4.9832 4.98438C4.55811 5.40931 4.22654 5.91841 4.00977 6.47901C3.76349 7.1349 3.63065 7.82792 3.61695 8.52839C3.57664 9.43026 3.56445 9.7162 3.56445 12.0065C3.56445 14.2959 3.56445 14.5875 3.61695 15.4846C3.63102 16.1859 3.7632 16.8778 4.00977 17.5349C4.22715 18.0953 4.55904 18.6042 4.98424 19.0291C5.40943 19.454 5.91858 19.7855 6.47914 20.0024C7.13298 20.2586 7.82574 20.4012 8.52758 20.4243C9.43039 20.4637 9.71633 20.4759 12.0057 20.4759C14.2951 20.4759 14.5885 20.4759 15.4838 20.4243C16.1842 20.4101 16.8772 20.2773 17.5332 20.0315C18.0936 19.8142 18.6025 19.4824 19.0276 19.0574C19.4526 18.6324 19.7843 18.1235 20.0016 17.5631C20.2482 16.9068 20.3804 16.215 20.3945 15.5137C20.4348 14.6118 20.447 14.3259 20.447 12.0356C20.447 9.74526 20.447 9.45464 20.3945 8.55745C20.3835 7.84708 20.25 7.14393 19.9998 6.47901ZM18.8579 15.4153C18.8518 15.9555 18.7532 16.4908 18.5663 16.9978C18.4255 17.3623 18.21 17.6934 17.9336 17.9696C17.6572 18.2459 17.326 18.4612 16.9613 18.6018C16.46 18.7879 15.9304 18.8865 15.3957 18.8934C14.5051 18.9346 14.2538 18.945 11.9701 18.945C9.68445 18.945 9.45102 18.945 8.54352 18.8934C8.00907 18.8868 7.47976 18.7882 6.97883 18.6018C6.61291 18.4621 6.28039 18.2472 6.00279 17.9708C5.72518 17.6945 5.50867 17.363 5.36727 16.9978C5.183 16.4962 5.08443 15.9673 5.0757 15.4331C5.03539 14.5424 5.02602 14.2912 5.02602 12.0075C5.02602 9.72276 5.02602 9.48933 5.0757 8.58089C5.08176 8.04091 5.18038 7.50597 5.36727 6.99933C5.6532 6.25964 6.23914 5.67745 6.97883 5.39433C7.48001 5.20883 8.00916 5.11023 8.54352 5.10276C9.43508 5.06245 9.68539 5.0512 11.9701 5.0512C14.2548 5.0512 14.4891 5.0512 15.3957 5.10276C15.9305 5.1092 16.4601 5.20783 16.9613 5.39433C17.3259 5.53521 17.6571 5.75077 17.9335 6.02717C18.2099 6.30357 18.4254 6.63471 18.5663 6.99933C18.7506 7.50084 18.8492 8.02979 18.8579 8.56401C18.8982 9.45558 18.9085 9.70589 18.9085 11.9906C18.9085 14.2743 18.9085 14.52 18.8682 15.4162L18.8579 15.4153Z" fill="white"/>
</g>
</svg>
