<svg width="20" height="21" viewBox="0 0 20 21" fill="none" xmlns="http://www.w3.org/2000/svg">
<g id="Calendar Icon">
<path id="Vector" d="M2.5 10.5C2.5 6.96451 2.5 6.03007 3.59835 4.93172C4.6967 3.83337 6.46447 3.83337 10 3.83337C13.5355 3.83337 15.3033 3.83337 16.4016 4.93172C17.5 6.03007 17.5 6.96451 17.5 10.5C17.5 14.0356 17.5 15.8033 16.4016 16.9017C15.3033 18 13.5355 18 10 18C6.46447 18 4.6967 18 3.59835 16.9017C2.5 15.8033 2.5 14.0356 2.5 10.5Z" stroke="#4B5563" stroke-width="1.5" stroke-linecap="round" stroke-linejoin="round"/>
<path id="Vector_2" d="M2.7085 7.16663H17.2918" stroke="#4B5563" stroke-width="1.5" stroke-linecap="round" stroke-linejoin="round"/>
<path id="Vector_3" d="M13.75 4.66667V3" stroke="#4B5563" stroke-width="1.5" stroke-linecap="round" stroke-linejoin="round"/>
<path id="Vector_4" d="M6.25 4.66667V3" stroke="#4B5563" stroke-width="1.5" stroke-linecap="round" stroke-linejoin="round"/>
</g>
</svg>
