<svg width="64" height="54" viewBox="0 0 64 54" fill="none" xmlns="http://www.w3.org/2000/svg">
<g id="Group">
<path id="Vector" d="M9.72814 41.2223C9.52903 41.2223 9.32992 41.1938 9.14503 41.1369L2.33259 39.2454C1.7637 39.0889 1.29436 38.7191 0.995697 38.1929C0.711253 37.6809 0.640141 37.0694 0.796586 36.5005L6.05881 18.2391C6.38592 17.0871 7.60903 16.4045 8.77525 16.7316L15.5877 18.6231C16.1566 18.7796 16.6401 19.1494 16.9246 19.6756C17.209 20.2018 17.2801 20.7991 17.1237 21.368L11.8615 39.6294C11.577 40.5823 10.681 41.2223 9.72814 41.2223ZM9.51481 39.7716C9.92725 39.8854 10.3539 39.6436 10.4819 39.2311L15.7441 20.9698C15.801 20.7707 15.7726 20.5574 15.673 20.3725C15.5735 20.1876 15.4028 20.0596 15.2037 20.0027L8.39125 18.0969C7.97881 17.9831 7.55214 18.2249 7.42414 18.6374L2.16192 36.8987C2.10503 37.0978 2.13347 37.3111 2.23303 37.496C2.33259 37.6809 2.50325 37.8089 2.70236 37.8658L9.51481 39.7716Z" fill="white"/>
<path id="Vector_2" d="M10.6385 25.5067C10.4251 25.5067 10.2118 25.4783 9.99846 25.4214C9.38691 25.2507 8.87491 24.8525 8.56202 24.2978C8.24913 23.7431 8.1638 23.1031 8.33446 22.4916C8.69002 21.2258 10.0127 20.4863 11.2785 20.8276C12.5442 21.1689 13.2838 22.5058 12.9425 23.7716C12.7718 24.3831 12.3736 24.8951 11.8189 25.208C11.4349 25.4071 11.0367 25.5067 10.6385 25.5067ZM10.6242 22.1503C10.4536 22.1503 10.2971 22.1929 10.1549 22.2783C9.92735 22.4063 9.77091 22.6054 9.6998 22.8614C9.55757 23.3734 9.85624 23.8996 10.3682 24.0418C10.61 24.1129 10.8802 24.0845 11.1078 23.9565C11.3354 23.8285 11.4918 23.6294 11.5629 23.3734C11.7051 22.8614 11.4065 22.3351 10.8945 22.1929C10.7949 22.1645 10.7096 22.1503 10.6242 22.1503ZM54.2722 41.2223C53.3194 41.2223 52.4234 40.5965 52.1531 39.6294L46.8909 21.368C46.7345 20.7991 46.7914 20.2018 47.09 19.6756C47.3887 19.1494 47.858 18.7796 48.4269 18.6231L55.2394 16.7316C56.4056 16.4045 57.6145 17.0871 57.9558 18.2391L63.218 36.5005C63.3745 37.0694 63.3176 37.6667 63.0189 38.1929C62.7345 38.7049 62.2509 39.0889 61.682 39.2454L54.8696 41.1369C54.6705 41.1938 54.4714 41.2223 54.2722 41.2223ZM55.8225 18.0685C55.7514 18.0685 55.6802 18.0827 55.6091 18.0969L48.7967 19.9885C48.5976 20.0454 48.4269 20.1734 48.3274 20.3583C48.2278 20.5431 48.1994 20.7565 48.2562 20.9556L53.5185 39.2169C53.6322 39.6294 54.0731 39.8711 54.4856 39.7574L61.298 37.8658C61.4971 37.8089 61.6678 37.6809 61.7674 37.496C61.8669 37.3111 61.8954 37.0978 61.8385 36.8987L56.5762 18.6374C56.4767 18.296 56.1496 18.0685 55.8225 18.0685Z" fill="white"/>
<path id="Vector_3" d="M53.3192 25.5067C52.281 25.5067 51.3139 24.8098 51.0152 23.7573C50.8445 23.1458 50.9299 22.5058 51.2285 21.9511C51.5414 21.3964 52.0534 20.9982 52.665 20.8275C53.9307 20.472 55.2534 21.2258 55.609 22.4915C55.9645 23.7573 55.2107 25.08 53.945 25.4355C53.7459 25.4782 53.5325 25.5067 53.3192 25.5067ZM53.3192 22.1502C53.2339 22.1502 53.1485 22.1644 53.0632 22.1929C52.8214 22.264 52.6081 22.4204 52.4801 22.648C52.3521 22.8755 52.3236 23.1315 52.3947 23.3733C52.4659 23.6151 52.6223 23.8284 52.8499 23.9564C53.0774 24.0844 53.3334 24.1129 53.5752 24.0418C54.0872 23.8995 54.3859 23.3733 54.2436 22.8613C54.1299 22.4347 53.7459 22.1502 53.3192 22.1502ZM45.8667 41.3075C45.4827 41.3075 45.1699 41.0089 45.1556 40.6249C45.1414 40.2267 45.4401 39.8995 45.8383 39.8853C45.881 39.8853 49.3939 39.7289 52.1387 37.8231C52.4659 37.5955 52.9067 37.6809 53.1343 38.008C53.3619 38.3351 53.2765 38.776 52.9494 39.0035C49.849 41.1511 46.0516 41.3075 45.8952 41.3075H45.8667ZM13.7814 40.4827C13.5965 40.4827 13.4116 40.4115 13.2836 40.2693L11.1787 38.1644C10.9085 37.88 10.9085 37.4391 11.1787 37.1547C11.449 36.8702 11.9041 36.8702 12.1885 37.1547L14.2934 39.2595C14.5636 39.544 14.5636 39.9849 14.2934 40.2693C14.1512 40.4115 13.9663 40.4827 13.7814 40.4827ZM27.7476 53.24C26.8232 53.24 25.8845 52.8844 25.1876 52.1733L23.9787 50.9644C23.7085 50.68 23.7085 50.2391 23.9787 49.9547C24.249 49.6702 24.7041 49.6702 24.9885 49.9547L26.1974 51.1635C27.0507 52.0169 28.4587 52.0169 29.3121 51.1635C29.7245 50.7511 29.9521 50.1964 29.9521 49.6133C29.9521 49.3289 29.8952 49.0444 29.7956 48.7884C29.6819 48.5182 29.5254 48.2764 29.3121 48.0631C29.0419 47.7787 29.0419 47.3378 29.3121 47.0533C29.5823 46.7689 30.0374 46.7689 30.3219 47.0533L33.0241 49.7555C33.8774 50.6089 35.2854 50.6089 36.1387 49.7555C36.5512 49.3431 36.7787 48.7884 36.7787 48.1911C36.7787 47.5938 36.5512 47.0533 36.1387 46.6267C35.8543 46.3422 35.8543 45.9013 36.1387 45.6169C36.4232 45.3324 36.8641 45.3324 37.1485 45.6169C37.8312 46.2995 38.2152 47.2098 38.2152 48.1769C38.2152 49.144 37.8454 50.0542 37.1485 50.7369C35.7405 52.1449 33.4365 52.1449 32.0285 50.7369L31.3601 50.0684C31.2605 50.8507 30.905 51.5902 30.3219 52.1591C29.5965 52.8844 28.6721 53.24 27.7476 53.24Z" fill="white"/>
<path id="Vector_4" d="M39.8648 48.8738C38.9404 48.8738 38.0159 48.5183 37.3048 47.8071L30.6773 41.1796C30.4071 40.8951 30.4071 40.4543 30.6773 40.1698C30.9475 39.8854 31.4026 39.8854 31.6871 40.1698L38.3146 46.7974C39.1679 47.6507 40.5759 47.6507 41.4293 46.7974C42.2826 45.944 42.2826 44.536 41.4293 43.6827L34.8017 37.0551C34.5173 36.7707 34.5173 36.3298 34.8017 36.0454C35.0862 35.7609 35.5271 35.7609 35.8115 36.0454L42.4391 42.6729C43.8471 44.0809 43.8471 46.3849 42.4391 47.7929C41.7279 48.5325 40.7893 48.8738 39.8648 48.8738Z" fill="white"/>
<path id="Vector_5" d="M42.9941 43.768C42.027 43.768 41.1168 43.3982 40.4341 42.7013C40.1497 42.4169 40.1497 41.976 40.4341 41.6916C40.7186 41.4071 41.1594 41.4071 41.4439 41.6916C41.8563 42.104 42.411 42.3316 43.0083 42.3316C43.6057 42.3316 44.1461 42.104 44.5728 41.6916C44.8999 41.3645 45.1132 40.9378 45.1843 40.4827C45.1986 40.3689 45.2128 40.2551 45.2128 40.1271C45.2128 39.544 44.9852 38.9893 44.5728 38.5627L34.0341 28.024C33.2661 27.256 32.1426 26.9716 31.1043 27.256C30.5639 27.4125 30.0946 27.6969 29.7106 28.1093L26.411 31.6933C26.3968 31.6933 26.3968 31.7076 26.3968 31.7076C24.8466 33.2578 22.3434 33.2578 20.7932 31.7076C19.5559 30.4702 19.2714 28.5929 20.0963 27.0427C21.1488 25.0658 22.9692 22.3351 25.6714 20.6427C25.6857 20.6427 25.6857 20.6285 25.6999 20.6285C27.9186 19.2347 30.3506 18.7796 32.9248 19.2347C33.3088 19.2916 38.6706 20.1165 42.8803 22.9893L47.4314 21.0267C47.787 20.8702 48.2137 21.0409 48.3701 21.3965C48.5266 21.752 48.3559 22.1787 48.0003 22.3351L43.0794 24.4542C42.8519 24.5538 42.5817 24.5253 42.3826 24.3831C38.3577 21.4818 32.7683 20.6427 32.7114 20.6427H32.683C30.4501 20.2302 28.3452 20.6427 26.4394 21.8516C26.4252 21.8516 26.4252 21.8658 26.411 21.8658C23.9932 23.4018 22.3292 25.8907 21.3621 27.7111C20.8359 28.7067 21.0208 29.9013 21.803 30.6978C22.7843 31.6791 24.3914 31.6933 25.387 30.712L28.6581 27.1565C29.2128 26.5591 29.9239 26.1182 30.7061 25.8907C32.2421 25.464 33.9061 25.8907 35.0297 27.0142L45.5683 37.5529C46.251 38.2356 46.635 39.1458 46.635 40.1129C46.635 40.312 46.6208 40.5111 46.5923 40.696C46.4786 41.4498 46.123 42.1325 45.5826 42.6871C44.8715 43.384 43.9612 43.768 42.9941 43.768Z" fill="white"/>
<path id="Vector_6" d="M16.1709 22.8756C15.8438 22.8756 15.5593 22.648 15.474 22.3209C15.3887 21.9369 15.6305 21.5529 16.0145 21.4676C20.6367 20.4151 25.842 20.5431 26.0696 20.5574C26.4536 20.5716 26.7665 20.8845 26.7665 21.2685C26.7665 21.6667 26.4393 21.9938 26.0411 21.9796C25.8278 21.9796 20.7931 21.8374 16.3416 22.8614C16.2705 22.8614 16.2278 22.8756 16.1709 22.8756ZM15.4313 43.3129C14.7345 43.3129 14.0802 43.0427 13.5825 42.5449C13.0847 42.0471 12.8145 41.3929 12.8145 40.696C12.8145 39.9991 13.0847 39.3449 13.5825 38.8471L15.8296 36.6C16.8393 35.5903 18.5033 35.5903 19.5131 36.6C20.0109 37.0978 20.2811 37.752 20.2811 38.4489C20.2811 39.1458 20.0109 39.8 19.5131 40.2978C19.2429 40.5823 18.7878 40.5823 18.5033 40.2978C18.2331 40.0134 18.2331 39.5725 18.5033 39.288C18.7309 39.0605 18.8447 38.7618 18.8447 38.4489C18.8447 38.136 18.7167 37.8374 18.5033 37.6098C18.034 37.1405 17.2945 37.1405 16.8251 37.6098L14.578 39.8569C14.3505 40.0845 14.2367 40.3831 14.2367 40.696C14.2367 41.0089 14.3647 41.3076 14.578 41.5351C14.8056 41.7627 15.1042 41.8765 15.4171 41.8765C15.73 41.8765 16.0287 41.7485 16.2562 41.5351C16.5265 41.2507 16.9816 41.2507 17.266 41.5351C17.5362 41.8196 17.5362 42.2605 17.266 42.5449C16.7825 43.0427 16.1282 43.3129 15.4313 43.3129Z" fill="white"/>
<path id="Vector_7" d="M17.3229 46.7974C16.6545 46.7974 15.9861 46.5414 15.4741 46.0294C14.9763 45.5316 14.7061 44.8774 14.7061 44.1805C14.7061 43.4836 14.9763 42.8294 15.4741 42.3316L18.5176 39.288C19.5274 38.2783 21.1914 38.2783 22.2012 39.288C22.6989 39.7858 22.9692 40.44 22.9692 41.1369C22.9692 41.8338 22.6989 42.488 22.2012 42.9858C21.9309 43.2703 21.4758 43.2703 21.1914 42.9858C20.9212 42.7014 20.9212 42.2605 21.1914 41.976C21.4189 41.7485 21.5327 41.4498 21.5327 41.1369C21.5327 40.824 21.4047 40.5254 21.1914 40.2978C20.7221 39.8285 19.9683 39.8285 19.5132 40.2978L16.4838 43.3556C16.2563 43.5831 16.1425 43.8818 16.1425 44.1947C16.1425 44.5076 16.2705 44.8063 16.4838 45.0338C16.9532 45.5031 17.6927 45.5031 18.1621 45.0338C18.4323 44.7494 18.8874 44.7494 19.1718 45.0338C19.4563 45.3183 19.4421 45.7591 19.1718 46.0436C18.6598 46.5414 17.9914 46.7974 17.3229 46.7974Z" fill="white"/>
<path id="Vector_8" d="M19.1149 50.3671C18.418 50.3671 17.7638 50.0969 17.266 49.5991C16.7683 49.1014 16.498 48.4471 16.498 47.7502C16.498 47.0534 16.7683 46.3991 17.266 45.9014L21.1914 41.976C22.2012 40.9662 23.8652 40.9662 24.8749 41.976C25.3727 42.4738 25.6429 43.128 25.6429 43.8249C25.6429 44.5218 25.3727 45.176 24.8749 45.6738L20.9496 49.5991C20.466 50.0969 19.8118 50.3671 19.1149 50.3671ZM23.0545 42.6445C22.7558 42.6445 22.4429 42.7582 22.2154 42.9858L18.2758 46.9111C18.0483 47.1387 17.9345 47.4374 17.9345 47.7502C17.9345 48.0631 18.0625 48.3618 18.2758 48.5894C18.5034 48.8169 18.802 48.9307 19.1149 48.9307C19.4278 48.9307 19.7265 48.8027 19.954 48.5894L23.8794 44.664C24.1069 44.4365 24.2207 44.1378 24.2207 43.8249C24.2207 43.512 24.0927 43.2134 23.8794 42.9858C23.6518 42.7582 23.3532 42.6445 23.0545 42.6445Z" fill="white"/>
<path id="Vector_9" d="M22.9406 51.9031C22.2437 51.9031 21.5895 51.6329 21.0917 51.1351C20.594 50.6374 20.3237 49.9831 20.3237 49.2862C20.3237 48.5894 20.594 47.9351 21.0917 47.4374C21.362 47.1529 21.8171 47.1529 22.1015 47.4374C22.3717 47.7218 22.3717 48.1627 22.1015 48.4471C21.874 48.6747 21.7602 48.9734 21.7602 49.2862C21.7602 49.5991 21.8882 49.8978 22.1015 50.1254C22.3291 50.3529 22.6277 50.4667 22.9406 50.4667C23.2535 50.4667 23.5522 50.3387 23.7797 50.1254L26.5673 47.3378C27.0366 46.8685 27.0366 46.1289 26.5673 45.6596C26.098 45.1902 25.3584 45.1902 24.8891 45.6596C24.6188 45.944 24.1637 45.944 23.8793 45.6596C23.6091 45.3751 23.6091 44.9342 23.8793 44.6498C24.8891 43.64 26.5531 43.64 27.5628 44.6498C28.5726 45.6596 28.5726 47.3236 27.5628 48.3334L24.7753 51.1209C24.2917 51.6329 23.6375 51.9031 22.9406 51.9031ZM39.1966 22.5342C39.0544 22.5342 38.898 22.4916 38.77 22.392C38.4571 22.1502 38.4002 21.7093 38.6277 21.3965C40.6757 18.7085 41.7424 15.4658 41.7424 12.0667V6.02223L32.0002 2.23912L22.258 6.02223V12.0667C22.258 15.2382 23.1966 18.2818 24.9886 20.856C25.2162 21.1831 25.1308 21.624 24.8037 21.8516C24.4766 22.0791 24.0357 21.9938 23.8082 21.6667C21.8597 18.8507 20.8215 15.5227 20.8215 12.0667V5.53868C20.8215 5.24001 21.0064 4.98401 21.2766 4.87023L31.73 0.802676C31.9006 0.745788 32.0855 0.745788 32.242 0.802676L42.6953 4.87023C42.9655 4.98401 43.1504 5.24001 43.1504 5.53868V12.0667C43.1504 15.7929 41.97 19.3058 39.7371 22.264C39.6233 22.4489 39.41 22.5342 39.1966 22.5342Z" fill="white"/>
<path id="Vector_10" d="M35.5416 21.2685C35.3709 21.2685 35.2002 21.2116 35.058 21.0836C34.7736 20.8134 34.7451 20.3725 35.0154 20.0738C37.0207 17.8836 38.13 15.0391 38.13 12.0667V8.51114L32.0002 6.12181L25.8705 8.51114V12.0667C25.8705 14.8969 26.8802 17.6418 28.7291 19.7894C28.9851 20.088 28.9567 20.5431 28.658 20.7991C28.3594 21.0551 27.9042 21.0267 27.6482 20.728C25.5838 18.3199 24.4488 15.2528 24.4482 12.0809V8.01337C24.4482 7.7147 24.6331 7.4587 24.9034 7.34492L31.7442 4.68537C31.9149 4.62848 32.0998 4.62848 32.2562 4.68537L39.0971 7.34492C39.3674 7.4587 39.5522 7.7147 39.5522 8.01337V12.0667C39.5522 15.3947 38.3149 18.5805 36.0678 21.0409C35.9114 21.1974 35.7265 21.2685 35.5416 21.2685Z" fill="white"/>
<path id="Vector_11" d="M30.6065 16.7173C30.4216 16.7173 30.2368 16.6462 30.1088 16.504L28.1319 14.5271C27.8616 14.2569 27.8616 13.8018 28.1319 13.5173C28.4021 13.2471 28.8572 13.2471 29.1416 13.5173L30.6208 14.9964L34.8874 10.7298C35.1719 10.4595 35.6128 10.4595 35.8972 10.7298C36.1816 11 36.1816 11.4551 35.8972 11.7395L31.1328 16.504C30.9763 16.6462 30.7914 16.7173 30.6065 16.7173Z" fill="white"/>
</g>
</svg>
