<svg width="56" height="56" viewBox="0 0 56 56" fill="none" xmlns="http://www.w3.org/2000/svg">
<g id="Group">
<path id="Vector" d="M44.2169 34.69C43.0705 33.4963 41.6876 32.858 40.222 32.858C38.7683 32.858 37.3736 33.4844 36.1799 34.6782L32.445 38.4012C32.1377 38.2357 31.8304 38.0821 31.5349 37.9284C31.1094 37.7157 30.7076 37.5148 30.3648 37.302C26.8664 35.08 23.687 32.1843 20.6377 28.4376C19.1603 26.5702 18.1674 24.9983 17.4465 23.4027C18.4156 22.5162 19.3139 21.5943 20.1885 20.7079C20.5195 20.377 20.8504 20.0342 21.1813 19.7033C23.6634 17.2212 23.6634 14.0064 21.1813 11.5244L17.9547 8.29775C17.5883 7.93136 17.2101 7.55315 16.8555 7.17493C16.1464 6.44214 15.4018 5.68571 14.6335 4.97656C13.487 3.84192 12.116 3.23914 10.6741 3.23914C9.23214 3.23914 7.83748 3.84192 6.65556 4.97656L6.63192 5.0002L2.6134 9.05418C1.10054 10.567 0.237741 12.4108 0.0486342 14.5501C-0.235026 18.0013 0.781424 21.2161 1.56149 23.3199C3.4762 28.4849 6.33644 33.2717 10.6032 38.4012C15.78 44.5826 22.0087 49.464 29.1238 52.9034C31.8422 54.1916 35.4707 55.7163 39.5247 55.9763C39.7729 55.9882 40.0329 56 40.2693 56C42.9995 56 45.2925 55.019 47.089 53.0688C47.1008 53.0452 47.1244 53.0334 47.1363 53.0097C47.7509 52.2651 48.46 51.5914 49.2046 50.8705C49.7128 50.3859 50.2329 49.8776 50.7411 49.3458C51.9112 48.1284 52.5258 46.7101 52.5258 45.2563C52.5258 43.7908 51.8994 42.3843 50.7057 41.2024L44.2169 34.69ZM48.4482 47.1356C48.4364 47.1356 48.4364 47.1474 48.4482 47.1356C47.9872 47.632 47.5145 48.0811 47.0063 48.5775C46.238 49.3103 45.4579 50.0786 44.7252 50.9414C43.5314 52.2178 42.1249 52.8206 40.2811 52.8206C40.1038 52.8206 39.9147 52.8206 39.7375 52.8088C36.2272 52.5842 32.9651 51.2132 30.5185 50.0431C23.8288 46.8047 17.9547 42.207 13.0734 36.3801C9.04303 31.5225 6.34826 27.0312 4.56356 22.2089C3.46438 19.266 3.06253 16.973 3.23981 14.8101C3.35801 13.4273 3.88987 12.2808 4.87086 11.2998L8.9012 7.26948C9.48034 6.7258 10.0949 6.43032 10.6977 6.43032C11.4423 6.43032 12.0451 6.87945 12.4233 7.25767L12.4588 7.29312C13.1797 7.96682 13.8653 8.66415 14.5862 9.40876C14.9526 9.78697 15.3308 10.1652 15.7091 10.5552L18.9357 13.7819C20.1885 15.0347 20.1885 16.193 18.9357 17.4458C18.5929 17.7886 18.262 18.1313 17.9192 18.4623C16.9264 19.4787 15.9809 20.4242 14.9526 21.3461C14.929 21.3698 14.9053 21.3816 14.8935 21.4052C13.8771 22.4217 14.0662 23.4145 14.2789 24.0882L14.3144 24.1946C15.1536 26.2275 16.3355 28.1422 18.132 30.4233L18.1438 30.4351C21.4059 34.4536 24.8453 37.5857 28.6392 39.985C29.1238 40.2923 29.6202 40.5405 30.093 40.7769C30.5185 40.9896 30.9203 41.1905 31.2631 41.4033C31.3104 41.4269 31.3577 41.4624 31.4049 41.486C31.8068 41.687 32.185 41.7815 32.575 41.7815C33.556 41.7815 34.1706 41.1669 34.3715 40.966L38.4137 36.9238C38.8156 36.522 39.4538 36.0374 40.1984 36.0374C40.9312 36.0374 41.534 36.4983 41.9004 36.9002L41.924 36.9238L48.4364 43.4362C49.6538 44.6417 49.6538 45.8828 48.4482 47.1356ZM30.223 13.3209C33.3196 13.841 36.1326 15.3065 38.3782 17.5522C40.6239 19.7978 42.0777 22.6108 42.6095 25.7074C42.7395 26.4875 43.4132 27.0312 44.1815 27.0312C44.276 27.0312 44.3588 27.0193 44.4533 27.0075C45.3279 26.8657 45.9071 26.0384 45.7652 25.1637C45.127 21.417 43.3541 18.0013 40.6475 15.2947C37.9409 12.5881 34.5252 10.8152 30.7785 10.177C29.9039 10.0352 29.0884 10.6143 28.9347 11.4771C28.7811 12.3399 29.3484 13.1791 30.223 13.3209ZM55.8943 24.7028C54.8424 18.5332 51.9348 12.9191 47.4672 8.4514C42.9995 3.98375 37.3854 1.07623 31.2158 0.0243256C30.353 -0.129324 29.5375 0.461635 29.3838 1.32444C29.242 2.19906 29.8212 3.01458 30.6958 3.16823C36.2035 4.10194 41.2267 6.71398 45.2216 10.697C49.2164 14.6919 51.8167 19.7151 52.7504 25.2228C52.8804 26.0029 53.5541 26.5466 54.3223 26.5466C54.4169 26.5466 54.4996 26.5348 54.5942 26.5229C55.457 26.3929 56.0479 25.5656 55.8943 24.7028Z" fill="#11284A"/>
</g>
</svg>
