<svg width="62" height="64" viewBox="0 0 62 64" fill="none" xmlns="http://www.w3.org/2000/svg">
<g id="Group">
<path id="Vector" d="M30.9617 10.2778C19.7719 10.2778 10.6682 19.3814 10.6682 30.5711C10.6682 34.151 11.6134 37.6706 13.4012 40.7494C15.1355 43.7357 17.6205 46.2486 20.5875 48.0165C21.4571 48.5347 21.936 49.3774 21.936 50.3893V55.0631C21.936 56.7446 23.0456 58.1717 24.571 58.651V58.7376C24.571 61.5015 26.8194 63.7501 29.5832 63.7501H32.3401C35.104 63.7501 37.3526 61.5016 37.3526 58.7376V58.651C38.8779 58.1716 39.9874 56.7445 39.9874 55.0631V50.3893C39.9874 49.3773 40.4664 48.5346 41.3361 48.0165C44.3031 46.2486 46.7881 43.7357 48.5224 40.7494C50.3104 37.6706 51.2554 34.151 51.2554 30.5711C51.2555 19.3813 42.1517 10.2778 30.9617 10.2778ZM32.3402 61.5H29.5834C28.089 61.5 26.8687 60.3068 26.8234 58.823H35.1005C35.055 60.3068 33.8347 61.5 32.3402 61.5ZM36.2276 56.573H25.6961C24.8635 56.573 24.1861 55.8956 24.1861 55.063V54.2627H37.7374V55.063C37.7374 55.8956 37.0601 56.573 36.2276 56.573ZM40.1846 46.0835C38.6295 47.01 37.7375 48.5794 37.7375 50.3891V52.0126H24.1861V50.3891C24.1861 48.5794 23.2942 47.01 21.7392 46.0835C16.2984 42.8415 12.9184 36.8976 12.9184 30.571C12.9184 20.6219 21.0126 12.5276 30.9619 12.5276C40.9112 12.5276 49.0056 20.6219 49.0056 30.571C49.0055 36.8976 45.6255 42.8415 40.1846 46.0835ZM4.83448 15.3348C4.90833 15.2068 5.00666 15.0946 5.12387 15.0047C5.24107 14.9147 5.37485 14.8488 5.51756 14.8105C5.66026 14.7723 5.80911 14.7625 5.95558 14.7818C6.10206 14.8011 6.2433 14.8491 6.37123 14.923L10.6764 17.4085C10.891 17.5324 11.0587 17.7236 11.1535 17.9525C11.2482 18.1815 11.2648 18.4353 11.2005 18.6746C11.1363 18.9139 10.9948 19.1253 10.7981 19.276C10.6014 19.4266 10.3605 19.5082 10.1127 19.5079C9.91559 19.5078 9.72195 19.4558 9.55136 19.357L5.24623 16.8715C5.11828 16.7976 5.00613 16.6993 4.91619 16.5821C4.82625 16.4649 4.76028 16.3311 4.72204 16.1884C4.68381 16.0457 4.67406 15.8969 4.69335 15.7504C4.71264 15.6039 4.7606 15.4627 4.83448 15.3348ZM6.88873 31.5443H1.91748C1.29611 31.5443 0.79248 31.0406 0.79248 30.4193C0.79248 29.7979 1.29611 29.2943 1.91748 29.2943H6.88873C7.51011 29.2943 8.01373 29.7979 8.01373 30.4193C8.01373 31.0406 7.51011 31.5443 6.88873 31.5443ZM11.0881 41.8934C11.2373 42.1518 11.2777 42.4588 11.2005 42.747C11.1233 43.0352 10.9347 43.2809 10.6764 43.4301L6.37123 45.9157C6.24331 45.9897 6.10207 46.0377 5.95558 46.0571C5.80909 46.0764 5.66023 46.0667 5.5175 46.0284C5.37477 45.9902 5.24099 45.9242 5.12379 45.8342C5.00659 45.7442 4.90828 45.632 4.83448 45.504C4.6853 45.2456 4.64488 44.9385 4.72209 44.6504C4.79931 44.3622 4.98785 44.1164 5.24623 43.9673L9.55136 41.4816C10.0897 41.171 10.7776 41.3554 11.0881 41.8934ZM43.4617 27.3604H42.2537C42.0069 26.4884 41.6587 25.6484 41.2162 24.8576L42.0709 24.0031C42.1753 23.8987 42.2582 23.7747 42.3148 23.6382C42.3713 23.5017 42.4004 23.3554 42.4004 23.2077C42.4004 23.0599 42.3713 22.9136 42.3148 22.7771C42.2583 22.6406 42.1754 22.5166 42.071 22.4121L39.1212 19.4621C38.9103 19.2512 38.6241 19.1327 38.3258 19.1327C38.0275 19.1327 37.7413 19.2512 37.5304 19.4621L36.6755 20.3169C35.8847 19.8744 35.0447 19.5261 34.1727 19.2792V18.0714C34.1727 17.773 34.0542 17.4869 33.8432 17.2759C33.6322 17.0649 33.3461 16.9464 33.0477 16.9464H28.8761C28.5777 16.9464 28.2916 17.0649 28.0806 17.2759C27.8696 17.4869 27.7511 17.773 27.7511 18.0714V19.2792C26.8791 19.526 26.039 19.8742 25.2481 20.3167L24.3936 19.4622C24.2891 19.3578 24.1651 19.2749 24.0286 19.2183C23.8921 19.1618 23.7458 19.1327 23.598 19.1327C23.4503 19.1327 23.304 19.1618 23.1675 19.2183C23.031 19.2749 22.9069 19.3578 22.8025 19.4622L19.8525 22.4123C19.748 22.5167 19.6651 22.6407 19.6086 22.7772C19.5521 22.9137 19.523 23.06 19.523 23.2078C19.523 23.3555 19.5521 23.5018 19.6086 23.6383C19.6651 23.7748 19.748 23.8988 19.8525 24.0033L20.7071 24.8577C20.2645 25.6486 19.9162 26.4886 19.6695 27.3606H18.462C18.1636 27.3606 17.8775 27.4792 17.6665 27.6901C17.4555 27.9011 17.337 28.1873 17.337 28.4856V32.6575C17.337 32.9559 17.4555 33.242 17.6665 33.453C17.8775 33.664 18.1636 33.7825 18.462 33.7825H19.6696C19.9164 34.6545 20.2646 35.4945 20.7071 36.2854L19.8525 37.1399C19.6415 37.3509 19.523 37.6371 19.523 37.9354C19.523 38.2338 19.6415 38.52 19.8525 38.731L22.8025 41.681C23.0135 41.8919 23.2996 42.0104 23.598 42.0104C23.8964 42.0104 24.1825 41.8918 24.3935 41.6809L25.248 40.8264C26.0389 41.2689 26.8789 41.6171 27.751 41.8639V43.0716C27.751 43.37 27.8695 43.6561 28.0805 43.8671C28.2915 44.0781 28.5776 44.1966 28.876 44.1966H33.0476C33.346 44.1966 33.6321 44.0781 33.8431 43.8671C34.0541 43.6561 34.1726 43.37 34.1726 43.0716V41.8638C35.0446 41.6169 35.8846 41.2687 36.6755 40.8262L37.5302 41.6809C37.6347 41.7853 37.7587 41.8682 37.8952 41.9247C38.0317 41.9812 38.178 42.0103 38.3258 42.0103C38.4735 42.0103 38.6198 41.9812 38.7563 41.9247C38.8928 41.8681 39.0168 41.7852 39.1212 41.6808L42.071 38.7309C42.1754 38.6264 42.2583 38.5024 42.3149 38.3659C42.3714 38.2294 42.4005 38.0831 42.4005 37.9354C42.4005 37.7876 42.3714 37.6413 42.3149 37.5049C42.2583 37.3684 42.1754 37.2443 42.071 37.1399L41.2164 36.2853C41.6587 35.4944 42.007 34.6544 42.2539 33.7825H43.4617C43.7601 33.7825 44.0462 33.664 44.2572 33.453C44.4682 33.242 44.5867 32.9559 44.5867 32.6575V28.4856C44.5868 28.3379 44.5577 28.1915 44.5012 28.055C44.4446 27.9185 44.3618 27.7945 44.2573 27.69C44.1528 27.5855 44.0288 27.5026 43.8923 27.446C43.7558 27.3895 43.6095 27.3604 43.4617 27.3604ZM42.3367 31.5322H41.3685C41.1083 31.5323 40.8562 31.6224 40.655 31.7875C40.4539 31.9525 40.3161 32.1821 40.2652 32.4372C40.0243 33.6497 39.5464 34.8027 38.859 35.83C38.7146 36.0464 38.6497 36.3061 38.6752 36.565C38.7008 36.8238 38.8153 37.0658 38.9992 37.2497L39.6845 37.9351L38.3256 39.294L37.6402 38.6087C37.4563 38.4247 37.2143 38.3102 36.9554 38.2846C36.6965 38.2591 36.4367 38.3241 36.2204 38.4686C35.1931 39.1561 34.0401 39.6339 32.8277 39.8747C32.5726 39.9256 32.3429 40.0634 32.1779 40.2645C32.0129 40.4657 31.9227 40.7178 31.9227 40.978V41.9463H30.0011V40.978C30.0011 40.7178 29.9109 40.4656 29.7458 40.2644C29.5808 40.0633 29.3511 39.9256 29.0959 39.8747C27.8834 39.634 26.7305 39.1561 25.7032 38.4686C25.4869 38.3241 25.2271 38.2591 24.9681 38.2847C24.7092 38.3103 24.4672 38.4248 24.2832 38.6089L23.5981 39.2941L22.2391 37.9351L22.9244 37.2497C23.1083 37.0658 23.2228 36.8238 23.2483 36.5649C23.2739 36.306 23.2089 36.0462 23.0645 35.8299C22.377 34.8026 21.8991 33.6497 21.6584 32.4372C21.6075 32.1821 21.4697 31.9525 21.2686 31.7875C21.0674 31.6224 20.8153 31.5323 20.5551 31.5322H19.5871V29.6104H20.5551C20.8153 29.6104 21.0675 29.5202 21.2687 29.3551C21.4698 29.19 21.6075 28.9603 21.6584 28.7051C21.8991 27.4928 22.377 26.3399 23.0645 25.3127C23.2089 25.0964 23.2739 24.8366 23.2483 24.5777C23.2228 24.3188 23.1083 24.0767 22.9244 23.8927L22.2391 23.2075L23.5981 21.8485L24.2832 22.5338C24.4672 22.7177 24.7092 22.8322 24.9681 22.8578C25.2271 22.8834 25.4868 22.8184 25.7032 22.674C26.7306 21.9865 27.8837 21.5086 29.0962 21.2677C29.3514 21.2168 29.581 21.0791 29.746 20.8779C29.9109 20.6768 30.0011 20.4247 30.0011 20.1645V19.1963H31.9227V20.1645C31.9227 20.4247 32.0129 20.6768 32.1779 20.878C32.3429 21.0791 32.5726 21.2169 32.8277 21.2677C34.0401 21.5086 35.1931 21.9865 36.2204 22.674C36.4367 22.8185 36.6965 22.8834 36.9554 22.8579C37.2143 22.8323 37.4563 22.7178 37.6402 22.5338L38.3256 21.8484L39.6845 23.2074L38.9991 23.8927C38.8151 24.0767 38.7006 24.3188 38.675 24.5778C38.6495 24.8368 38.7145 25.0966 38.859 25.313C39.5465 26.3402 40.0244 27.4931 40.2652 28.7055C40.3162 28.9606 40.4539 29.1902 40.6551 29.3552C40.8562 29.5202 41.1083 29.6103 41.3685 29.6104H42.3367V31.5322ZM30.9615 22.9464C26.7571 22.9464 23.3367 26.367 23.3367 30.5714C23.3367 34.7757 26.7571 38.1963 30.9615 38.1963C35.166 38.1963 38.5865 34.7757 38.5865 30.5714C38.5865 26.367 35.166 22.9464 30.9615 22.9464ZM30.9615 35.9463C27.9979 35.9463 25.5867 33.5351 25.5867 30.5714C25.5867 27.6076 27.9979 25.1964 30.9615 25.1964C33.9252 25.1964 36.3365 27.6076 36.3365 30.5714C36.3365 33.5351 33.9252 35.9463 30.9615 35.9463ZM50.8357 18.9452C50.6866 18.6869 50.6461 18.3798 50.7233 18.0916C50.8006 17.8034 50.9891 17.5577 51.2475 17.4085L55.5524 14.923C55.8107 14.7738 56.1178 14.7334 56.406 14.8106C56.6942 14.8878 56.9399 15.0764 57.0891 15.3348C57.2383 15.5931 57.2787 15.9002 57.2015 16.1884C57.1243 16.4766 56.9357 16.7223 56.6774 16.8715L52.3725 19.357C52.2445 19.4309 52.1033 19.4789 51.9568 19.4982C51.8104 19.5175 51.6615 19.5077 51.5188 19.4695C51.3761 19.4312 51.2423 19.3653 51.1251 19.2753C51.0079 19.1854 50.9096 19.0732 50.8357 18.9452ZM61.2071 30.4398C61.2071 30.7381 61.0886 31.0243 60.8776 31.2352C60.6666 31.4462 60.3805 31.5648 60.0821 31.5648H55.1109C54.4895 31.5648 53.9859 31.0611 53.9859 30.4398C53.9859 29.8184 54.4895 29.3148 55.1109 29.3148H60.0821C60.3805 29.3148 60.6666 29.4333 60.8776 29.6443C61.0886 29.8552 61.2071 30.1414 61.2071 30.4398ZM57.0891 45.504C57.0153 45.632 56.917 45.7442 56.7998 45.8342C56.6826 45.9242 56.5488 45.9902 56.4061 46.0284C56.2634 46.0667 56.1145 46.0764 55.968 46.0571C55.8215 46.0377 55.6803 45.9897 55.5524 45.9157L51.2475 43.4301C50.9891 43.2809 50.8006 43.0352 50.7233 42.747C50.6461 42.4588 50.6866 42.1518 50.8357 41.8934C50.9096 41.7654 51.0079 41.6533 51.1251 41.5633C51.2423 41.4734 51.3761 41.4074 51.5188 41.3691C51.6615 41.3309 51.8104 41.3212 51.9568 41.3405C52.1033 41.3598 52.2445 41.4077 52.3725 41.4816L56.6774 43.9673C56.9357 44.1164 57.1243 44.3622 57.2015 44.6504C57.2787 44.9385 57.2383 45.2456 57.0891 45.504ZM29.8367 6.34613V1.375C29.8367 0.753625 30.3404 0.25 30.9617 0.25C31.5831 0.25 32.0867 0.753625 32.0867 1.375V6.34613C32.0867 6.64449 31.9682 6.93064 31.7572 7.14162C31.5462 7.3526 31.2601 7.47113 30.9617 7.47113C30.6634 7.47113 30.3772 7.3526 30.1662 7.14162C29.9553 6.93064 29.8367 6.64449 29.8367 6.34613ZM15.4654 5.82875C15.3162 5.57036 15.2758 5.2633 15.353 4.9751C15.4302 4.68691 15.6187 4.44119 15.8771 4.292C16.415 3.98125 17.1031 4.16575 17.4139 4.70363L19.8997 9.00863C20.0489 9.26701 20.0893 9.57408 20.0121 9.86227C19.9349 10.1505 19.7464 10.3962 19.488 10.5454C19.3601 10.6193 19.2188 10.6673 19.0724 10.6866C18.9259 10.7059 18.777 10.6961 18.6343 10.6579C18.4916 10.6197 18.3578 10.5537 18.2406 10.4638C18.1234 10.3738 18.0251 10.2617 17.9512 10.1337L15.4654 5.82875ZM42.0244 9.00887L44.5097 4.70388C44.5828 4.57438 44.6808 4.46064 44.798 4.36924C44.9153 4.27785 45.0495 4.2106 45.193 4.1714C45.3364 4.1322 45.4862 4.12181 45.6336 4.14085C45.7811 4.15988 45.9233 4.20796 46.0521 4.28229C46.1808 4.35663 46.2936 4.45575 46.3838 4.57393C46.474 4.69211 46.5399 4.827 46.5777 4.97081C46.6155 5.11461 46.6243 5.26448 46.6038 5.41174C46.5833 5.559 46.5338 5.70073 46.4582 5.82875L43.9729 10.1337C43.899 10.2617 43.8007 10.3739 43.6835 10.4639C43.5663 10.5538 43.4325 10.6198 43.2898 10.6581C43.1471 10.6963 42.9983 10.7061 42.8518 10.6868C42.7053 10.6675 42.564 10.6195 42.4361 10.5456C42.1777 10.3964 41.9892 10.1507 41.912 9.86252C41.8348 9.57433 41.8752 9.26726 42.0244 9.00887Z" fill="white"/>
</g>
</svg>
