<svg width="64" height="58" viewBox="0 0 64 58" fill="none" xmlns="http://www.w3.org/2000/svg">
<g id="Group">
<path id="Vector" fill-rule="evenodd" clip-rule="evenodd" d="M36.9281 40.3719C44.0536 42.3543 49.4305 48.5296 50.2364 56.0716C50.2513 56.2117 50.2366 56.3533 50.1933 56.4873C50.1499 56.6213 50.0789 56.7447 49.9847 56.8494C49.8906 56.9542 49.7755 57.0379 49.6468 57.0953C49.5182 57.1526 49.3789 57.1822 49.2381 57.1822H14.7619C14.621 57.1822 14.4817 57.1525 14.353 57.0952C14.2244 57.0378 14.1092 56.9539 14.0151 56.8491C13.9209 56.7443 13.8499 56.6209 13.8066 56.4868C13.7632 56.3528 13.7486 56.2111 13.7636 56.071C14.5737 48.5289 19.9515 42.3537 27.0749 40.3717C24.1821 38.6721 22.2337 35.5255 22.2337 31.9394C22.2337 26.5591 26.6196 22.1685 32 22.1685C37.3854 22.1685 41.7709 26.5592 41.7709 31.9394C41.7709 35.5256 39.8224 38.6723 36.9281 40.3719ZM32 41.7104C23.9601 41.7104 17.2767 47.522 15.918 55.1744H48.0824C46.7279 47.5219 40.044 41.7104 32 41.7104ZM32 39.7026C36.2787 39.7026 39.7631 36.2141 39.7631 31.9394C39.7631 27.6648 36.2787 24.1763 32 24.1763C27.7255 24.1763 24.2416 27.6649 24.2416 31.9394C24.2416 36.214 27.7255 39.7026 32 39.7026ZM14.533 34.0464C14.533 34.6005 14.0831 35.0503 13.5291 35.0503C12.975 35.0503 12.5252 34.6005 12.5252 34.0464C12.5252 23.298 21.2515 14.5715 32 14.5715C42.7485 14.5715 51.4748 23.298 51.4748 34.0464C51.4748 34.6005 51.0249 35.0503 50.4709 35.0503C49.9169 35.0503 49.467 34.6005 49.467 34.0464C49.467 24.4061 41.6403 16.5794 32 16.5794C22.3597 16.5794 14.533 24.4061 14.533 34.0464ZM30.9961 7.05856V1.82173C30.9961 1.26769 31.4459 0.81781 32 0.81781C32.554 0.81781 33.0039 1.26769 33.0039 1.82173V7.05856L33.286 6.8111C33.4862 6.63563 33.7478 6.54679 34.0135 6.56411C34.2791 6.58143 34.527 6.70348 34.7027 6.90346C34.8782 7.10362 34.9671 7.3653 34.9498 7.63097C34.9324 7.89664 34.8104 8.14456 34.6103 8.32024L32.6622 10.0298C32.479 10.1905 32.2437 10.2792 32 10.2792C31.7563 10.2792 31.5209 10.1905 31.3378 10.0298L29.3897 8.32024C29.1896 8.14456 29.0675 7.89664 29.0502 7.63097C29.0329 7.3653 29.1218 7.10362 29.2973 6.90346C29.473 6.70348 29.7209 6.58143 29.9865 6.56411C30.2521 6.54679 30.5138 6.63563 30.714 6.8111L30.9961 7.05856ZM15.1165 13.6361L15.1409 13.2617C15.177 12.7088 15.6551 12.2891 16.2081 12.3253C16.4737 12.3427 16.7216 12.4649 16.8972 12.665C17.0727 12.8651 17.1617 13.1268 17.1445 13.3924L16.9758 15.9788C16.96 16.2219 16.8562 16.451 16.6839 16.6233C16.5116 16.7956 16.2825 16.8993 16.0394 16.9152L13.4529 17.084C13.1872 17.1011 12.9256 17.0122 12.7255 16.8365C12.5254 16.6609 12.4032 16.4131 12.3857 16.1474C12.3686 15.8818 12.4576 15.6202 12.6332 15.4201C12.8088 15.22 13.0566 15.0978 13.3223 15.0804L13.6967 15.0559L9.99378 11.353C9.80558 11.1646 9.69987 10.9093 9.69987 10.6431C9.69987 10.3768 9.80558 10.1215 9.99378 9.93317C10.1821 9.74502 10.4374 9.63933 10.7036 9.63933C10.9698 9.63933 11.2251 9.74502 11.4134 9.93317L15.1165 13.6361ZM7.11917 30.9355L6.8717 30.6535C6.50615 30.237 6.54756 29.6021 6.96407 29.2367C7.38057 28.8713 8.0153 28.9127 8.38085 29.3291L10.0904 31.2773C10.2511 31.4604 10.3397 31.6958 10.3397 31.9394C10.3397 32.1831 10.2511 32.4184 10.0904 32.6016L8.38085 34.5498C8.0153 34.9662 7.38057 35.0076 6.96407 34.6422C6.54756 34.2768 6.50615 33.6419 6.8717 33.2254L7.11917 32.9433H1.88234C1.3283 32.9433 0.878418 32.4935 0.878418 31.9394C0.878418 31.3853 1.3283 30.9355 1.88234 30.9355H7.11917ZM48.8834 13.6361L52.5865 9.93317C52.7748 9.74502 53.0302 9.63933 53.2964 9.63933C53.5626 9.63933 53.8179 9.74502 54.0062 9.93317C54.1944 10.1215 54.3001 10.3768 54.3001 10.6431C54.3001 10.9093 54.1944 11.1646 54.0062 11.353L50.3032 15.0559L50.6777 15.0804C50.9433 15.0978 51.1912 15.22 51.3668 15.4201C51.5424 15.6202 51.6314 15.8818 51.6142 16.1474C51.5968 16.4131 51.4746 16.6609 51.2745 16.8365C51.0744 17.0122 50.8127 17.1011 50.5471 17.084L47.9606 16.9152C47.7174 16.8993 47.4884 16.7956 47.3161 16.6233C47.1438 16.451 47.04 16.2219 47.0242 15.9788L46.8555 13.3924C46.8383 13.1268 46.9272 12.8651 47.1028 12.665C47.2784 12.4649 47.5263 12.3427 47.7919 12.3253C48.3448 12.2891 48.823 12.7088 48.8591 13.2617L48.8834 13.6361ZM56.8808 30.9355H62.1176C62.6717 30.9355 63.1216 31.3853 63.1216 31.9394C63.1216 32.4935 62.6717 32.9433 62.1176 32.9433H56.8808L57.1283 33.2254C57.4938 33.6419 57.4524 34.2768 57.0359 34.6422C56.6194 35.0076 55.9847 34.9662 55.6191 34.5498L53.9096 32.6016C53.7489 32.4184 53.6602 32.1831 53.6602 31.9394C53.6602 31.6958 53.7489 31.4604 53.9096 31.2773L55.6191 29.3291C55.9847 28.9127 56.6194 28.8713 57.0359 29.2367C57.4524 29.6021 57.4938 30.237 57.1283 30.6535L56.8808 30.9355Z" fill="white"/>
</g>
</svg>
