<svg width="72" height="72" viewBox="0 0 72 72" fill="none" xmlns="http://www.w3.org/2000/svg">
<g id="Icon">
<g id="Icon Vector">
<path id="Vector" d="M69.7792 26.7886C63.7266 25.5656 57.5946 26.2517 51.5546 28.8289C51.3091 28.9337 51.1124 29.1277 51.0042 29.3718C50.8961 29.6159 50.8845 29.8919 50.9719 30.1442L51.6337 32.0552C48.9154 32.056 46.6574 31.344 44.2878 30.5939C43.5671 30.3657 42.8218 30.1299 42.0558 29.9116C38.4921 28.8972 34.9006 29.771 32.2014 32.309L31.8688 32.6216C27.2587 33.6619 24.076 33.5957 20.2706 32.3316L21.0282 30.1442C21.1156 29.8919 21.104 29.6159 20.9959 29.3718C20.8877 29.1277 20.691 28.9337 20.4454 28.8289C14.4055 26.2519 8.27364 25.5653 2.22086 26.7886C1.9822 26.8368 1.76757 26.9661 1.61339 27.1546C1.45921 27.343 1.37498 27.579 1.375 27.8225V53.9897C1.375 54.5723 1.84708 55.0444 2.42969 55.0444H11.6541C11.8734 55.0444 12.0872 54.9761 12.2658 54.8489C12.4444 54.7217 12.579 54.542 12.6507 54.3348L13.0654 53.1372C16.5836 54.4607 19.2958 57.2826 20.8091 58.8582C20.9493 59.0046 21.0901 59.1505 21.2315 59.2958L32.0957 70.4281C32.7694 71.1183 33.6778 71.5017 34.6535 71.5077L34.6767 71.5078C35.658 71.5078 36.5777 71.1282 37.2687 70.4372C37.6884 70.0184 37.9992 69.5031 38.1737 68.9365C39.7877 69.8383 41.8698 69.6043 43.24 68.2343C43.926 67.5496 44.3553 66.6495 44.4557 65.6855C44.8349 65.7922 45.2269 65.8461 45.6208 65.8457C46.7552 65.8457 47.8196 65.4062 48.6175 64.6082C49.3828 63.8429 49.7936 62.855 49.85 61.8511C51.2021 62.1312 52.666 61.748 53.7137 60.7008C55.2598 59.1546 55.357 56.7389 54.0017 55.0358C54.3734 54.9622 54.7372 54.8529 55.088 54.7094C56.1722 54.267 57.1727 53.7642 58.1405 53.278C58.3847 53.1554 58.6226 53.0361 58.8591 52.9189L59.3495 54.3348C59.4212 54.542 59.5558 54.7217 59.7344 54.8489C59.913 54.9761 60.1268 55.0444 60.3461 55.0444H69.5705C70.1531 55.0444 70.6252 54.5723 70.6252 53.9897V27.8225C70.6252 27.579 70.5409 27.343 70.3867 27.1546C70.2325 26.9662 70.0179 26.8369 69.7792 26.7886ZM10.9033 52.935H3.48452V28.6989C8.5345 27.8394 13.6473 28.4097 18.7084 30.3966L10.9033 52.935ZM52.222 59.209C51.3918 60.0388 50.0414 60.0388 49.2117 59.209L42.575 52.4231C42.4783 52.324 42.363 52.2449 42.2357 52.1903C42.1084 52.1358 41.9716 52.1068 41.8331 52.1051C41.6946 52.1035 41.5572 52.1291 41.4286 52.1805C41.3 52.232 41.1828 52.3083 41.0837 52.405C40.9846 52.5017 40.9055 52.617 40.8509 52.7443C40.7964 52.8716 40.7674 53.0084 40.7657 53.1469C40.7641 53.2854 40.7897 53.4229 40.8411 53.5515C40.8926 53.68 40.9688 53.7972 41.0656 53.8963L47.1171 60.0973L47.1209 60.1009L47.1261 60.1066C47.9559 60.9363 47.9559 62.2867 47.1261 63.1166C46.2961 63.9465 44.9454 63.9464 44.116 63.117L37.1975 56.0492C37.1008 55.95 36.9855 55.8709 36.8582 55.8164C36.7309 55.7618 36.5941 55.7328 36.4556 55.7312C36.3171 55.7295 36.1797 55.7551 36.0511 55.8065C35.9225 55.858 35.8053 55.9343 35.7062 56.031C35.6071 56.1278 35.528 56.2431 35.4734 56.3704C35.4189 56.4977 35.3899 56.6344 35.3882 56.7729C35.3866 56.9114 35.4122 57.0489 35.4636 57.1775C35.5151 57.3061 35.5913 57.4232 35.6881 57.5224L41.7397 63.7234L41.7442 63.7274L41.7487 63.7324V63.7325C42.1484 64.132 42.3683 64.6665 42.3683 65.2376C42.3683 65.8087 42.1484 66.3431 41.749 66.7424C40.9188 67.5723 39.5683 67.5721 38.7386 66.7427L31.2266 59.0815C31.1299 58.9823 31.0146 58.9032 30.8873 58.8487C30.76 58.7941 30.6232 58.7651 30.4847 58.7634C30.3462 58.7618 30.2087 58.7874 30.0801 58.8388C29.9516 58.8903 29.8344 58.9666 29.7353 59.0633C29.6361 59.1601 29.5571 59.2754 29.5025 59.4027C29.4479 59.5299 29.419 59.6667 29.4173 59.8052C29.4156 59.9437 29.4412 60.0812 29.4927 60.2098C29.5441 60.3383 29.6204 60.4555 29.7171 60.5546L35.7686 66.7555L35.7731 66.7597L35.7776 66.7646C36.3787 67.366 36.3788 68.3443 35.7778 68.9456C35.4832 69.2402 35.0905 69.3991 34.6671 69.3984C34.2596 69.3959 33.8826 69.2383 33.6058 68.9549L22.7417 57.8226C22.6158 57.6936 22.4789 57.5509 22.3311 57.3971C20.689 55.6873 17.7442 52.6235 13.7566 51.1432L19.5807 34.3253C21.8537 35.0817 23.953 35.4527 26.1974 35.4527C27.1189 35.4527 28.0668 35.3877 29.0591 35.2637L26.6185 37.5585C25.451 38.6564 24.8339 40.0837 24.8339 41.6864V52.2839C24.8339 52.8665 25.306 53.3386 25.8886 53.3386C30.434 53.3386 35.1357 50.4637 35.1357 45.6523C35.1357 43.9916 36.4448 42.8045 37.4483 41.9841L48.9418 53.4707C49.4963 54.0249 50.1324 54.4455 50.814 54.7264L52.206 56.1816C53.0399 57.0542 53.0472 58.384 52.222 59.209ZM57.1934 51.3931C56.2619 51.8609 55.2988 52.345 54.2908 52.7562C52.921 53.3154 51.479 53.0246 50.4325 51.9789L38.2618 39.8158C38.0714 39.6255 37.8154 39.5153 37.5463 39.5076C37.2773 39.4999 37.0154 39.5954 36.8145 39.7745C36.7025 39.8742 36.5493 39.9979 36.3718 40.1411C35.2025 41.0851 33.0258 42.8421 33.0258 45.6525C33.0258 47.6356 31.86 48.9219 30.8821 49.6517C29.7978 50.461 28.403 50.9916 26.9427 51.1662V41.6866C26.9427 40.6517 27.3091 39.804 28.063 39.0953L33.6463 33.8456C35.7914 31.8285 38.6461 31.1339 41.4782 31.9403C42.2146 32.1498 42.9449 32.3811 43.6511 32.6047C46.2725 33.4344 48.978 34.2886 52.3589 34.1494L58.1632 50.9097C57.8392 51.0693 57.5159 51.2305 57.1934 51.3931ZM68.5157 52.935H61.0969L53.2918 30.3968C58.3527 28.4097 63.4653 27.8395 68.5157 28.699V52.935ZM11.4648 24.9744H25.7431V27.9592C25.7431 28.5418 26.2151 29.0139 26.7978 29.0139H45.2023C45.7849 29.0139 46.257 28.5418 46.257 27.9592V24.9744H60.5352C61.1178 24.9744 61.5899 24.5023 61.5899 23.9197V19.5099C61.5922 17.7794 61.088 16.0861 60.1395 14.6387C59.191 13.1913 57.8396 12.0531 56.2521 11.3645C57.2943 10.2095 57.9295 8.68751 57.9295 7.02082C57.9295 3.42097 54.9703 0.49231 51.333 0.49231C47.6956 0.49231 44.7364 3.42097 44.7364 7.02082C44.7364 8.68892 45.3726 10.2122 46.4165 11.3675C44.3911 12.2548 42.7666 13.8616 41.8573 15.8771C41.5542 15.7009 41.241 15.5429 40.9192 15.4039C41.9613 14.249 42.5965 12.727 42.5965 11.0604C42.5965 7.46042 39.6374 4.53176 36.0001 4.53176C32.3627 4.53176 29.4035 7.46042 29.4035 11.0604C29.4035 12.7271 30.0387 14.2491 31.0809 15.404C30.7575 15.5444 30.4439 15.7016 30.1429 15.8772C29.2337 13.8617 27.6093 12.2549 25.5839 11.3677C26.6277 10.2125 27.2639 8.6892 27.2639 7.02111C27.2639 3.42125 24.3048 0.492591 20.6675 0.492591C17.0301 0.492591 14.0709 3.42125 14.0709 7.02111C14.0709 8.68779 14.7061 10.2099 15.7483 11.3647C14.1607 12.0534 12.8094 13.1916 11.8609 14.639C10.9124 16.0863 10.4082 17.7797 10.4104 19.5102V23.92C10.4104 24.0585 10.4377 24.1956 10.4907 24.3235C10.5436 24.4515 10.6213 24.5677 10.7192 24.6656C10.8171 24.7635 10.9334 24.8412 11.0613 24.8942C11.1893 24.9472 11.3264 24.9744 11.4648 24.9744ZM44.1476 26.9044H27.8526V23.5493C27.8526 20.3616 30.0555 17.6349 33.1374 16.9412C34.0312 17.3687 35.0095 17.59 36.0003 17.5887C36.9909 17.59 37.9693 17.3687 38.863 16.9412C41.9449 17.6349 44.1478 20.3616 44.1478 23.5493V26.9044H44.1476ZM51.333 2.60154C53.8072 2.60154 55.8201 4.58393 55.8201 7.02068C55.8201 9.45743 53.8072 11.44 51.333 11.44C48.8587 11.44 46.8458 9.45743 46.8458 7.02068C46.8458 4.58393 48.8587 2.60154 51.333 2.60154ZM48.471 12.9022C49.3645 13.3295 50.3426 13.5507 51.333 13.5493C52.3582 13.5493 53.3295 13.3165 54.1959 12.9018C57.2778 13.5957 59.4807 16.3223 59.4807 19.5099V22.865H46.2293C46.0673 20.7201 45.1304 18.7075 43.5934 17.2026C44.3804 15.0431 46.2212 13.4114 48.471 12.9022ZM36.0001 6.641C38.4743 6.641 40.4872 8.62353 40.4872 11.0603C40.4872 13.497 38.4743 15.4793 36.0001 15.4793C33.5258 15.4793 31.5129 13.4969 31.5129 11.0601C31.5129 8.62339 33.5258 6.641 36.0001 6.641ZM20.6673 2.60154C23.1415 2.60154 25.1544 4.58393 25.1544 7.02068C25.1544 9.45743 23.1415 11.44 20.6673 11.44C18.193 11.44 16.1801 9.45743 16.1801 7.02068C16.1801 4.58393 18.193 2.60154 20.6673 2.60154ZM12.5195 19.5097C12.5195 16.3222 14.7224 13.5956 17.8044 12.9016C18.6981 13.3292 19.6766 13.5505 20.6673 13.5492C21.6578 13.5505 22.6358 13.3294 23.5293 12.902C25.7791 13.4112 27.62 15.0428 28.4069 17.2025C26.8699 18.7073 25.933 20.72 25.771 22.8649H12.5195V19.5097Z" fill="white"/>
</g>
</g>
</svg>
