<svg width="72" height="72" viewBox="0 0 72 72" fill="none" xmlns="http://www.w3.org/2000/svg">
<g id="Icon" clip-path="url(#clip0_171_5262)">
<g id="Icon Vector">
<path id="Vector" d="M36.7211 34.3467C36.6473 34.4747 36.549 34.5869 36.4318 34.6768C36.3145 34.7668 36.1807 34.8328 36.038 34.8711C35.8953 34.9093 35.7464 34.919 35.5999 34.8997C35.4534 34.8804 35.3122 34.8324 35.1842 34.7584L29.4926 31.4724C29.3216 31.3737 29.1795 31.2317 29.0808 31.0607C28.982 30.8897 28.9301 30.6957 28.9301 30.4982V21.9734C28.9301 21.675 29.0486 21.3889 29.2596 21.1779C29.4706 20.9669 29.7567 20.8484 30.0551 20.8484C30.3534 20.8484 30.6396 20.9669 30.8506 21.1779C31.0616 21.3889 31.1801 21.675 31.1801 21.9734V29.8486L36.3092 32.8101C36.4372 32.8839 36.5494 32.9822 36.6393 33.0994C36.7293 33.2166 36.7952 33.3504 36.8335 33.493C36.8717 33.6357 36.8815 33.7846 36.8622 33.931C36.8429 34.0775 36.795 34.2187 36.7211 34.3467ZM30.0552 15.6284C30.3536 15.6284 30.6397 15.5098 30.8507 15.2989C31.0617 15.0879 31.1802 14.8017 31.1802 14.5034V12.5587C31.1802 12.2603 31.0617 11.9741 30.8507 11.7632C30.6397 11.5522 30.3536 11.4337 30.0552 11.4337C29.7568 11.4337 29.4707 11.5522 29.2597 11.7632C29.0487 11.9741 28.9302 12.2603 28.9302 12.5587V14.5034C28.9302 14.8017 29.0487 15.0879 29.2597 15.2989C29.4707 15.5098 29.7568 15.6284 30.0552 15.6284ZM41.9448 17.0176L40.5698 18.3925C40.4653 18.4969 40.3824 18.621 40.3259 18.7574C40.2693 18.8939 40.2402 19.0402 40.2402 19.1879C40.2402 19.3357 40.2693 19.482 40.3259 19.6184C40.3824 19.7549 40.4653 19.8789 40.5698 19.9834C40.6741 20.088 40.7981 20.171 40.9346 20.2276C41.0711 20.2842 41.2175 20.3132 41.3653 20.313C41.513 20.3132 41.6594 20.2842 41.7959 20.2276C41.9324 20.1711 42.0564 20.0881 42.1608 19.9835L43.5358 18.6086C43.7468 18.3976 43.8653 18.1115 43.8653 17.8131C43.8653 17.5147 43.7468 17.2286 43.5358 17.0176C43.3248 16.8066 43.0387 16.6881 42.7403 16.6881C42.4419 16.6881 42.1558 16.8066 41.9448 17.0176ZM17.9495 41.0129L16.5745 42.3879C16.47 42.4924 16.3871 42.6164 16.3306 42.7528C16.2741 42.8893 16.245 43.0356 16.245 43.1833C16.245 43.3311 16.2741 43.4774 16.3306 43.6138C16.3871 43.7503 16.47 43.8743 16.5745 43.9788C16.7941 44.1984 17.082 44.3083 17.37 44.3083C17.658 44.3083 17.9459 44.1984 18.1655 43.9786L19.5405 42.6036C19.7476 42.3918 19.8628 42.1069 19.8611 41.8108C19.8594 41.5146 19.741 41.231 19.5316 41.0216C19.3221 40.8122 19.0385 40.6938 18.7423 40.6922C18.4461 40.6905 18.1613 40.8058 17.9495 41.0129ZM18.1655 17.0176C17.9545 16.8067 17.6684 16.6882 17.37 16.6882C17.0717 16.6882 16.7856 16.8068 16.5746 17.0177C16.4702 17.1222 16.3873 17.2462 16.3307 17.3827C16.2742 17.5192 16.2451 17.6655 16.2451 17.8132C16.2451 17.9609 16.2742 18.1072 16.3307 18.2437C16.3873 18.3802 16.4702 18.5042 16.5746 18.6086L17.9497 19.9835C18.1693 20.2032 18.4572 20.313 18.7452 20.313C19.0332 20.313 19.321 20.2032 19.5407 19.9834C19.6452 19.8789 19.728 19.7549 19.7846 19.6184C19.8411 19.482 19.8702 19.3357 19.8702 19.1879C19.8702 19.0402 19.8411 18.8939 19.7846 18.7574C19.728 18.621 19.6452 18.4969 19.5407 18.3925L18.1655 17.0176ZM46.05 31.6232H47.9947C48.2931 31.6232 48.5793 31.5047 48.7902 31.2937C49.0012 31.0827 49.1197 30.7966 49.1197 30.4982C49.1197 30.1998 49.0012 29.9137 48.7902 29.7027C48.5793 29.4917 48.2931 29.3732 47.9947 29.3732H46.05C45.7517 29.3732 45.4655 29.4917 45.2546 29.7027C45.0436 29.9137 44.925 30.1998 44.925 30.4982C44.925 30.7966 45.0436 31.0827 45.2546 31.2937C45.4655 31.5047 45.7517 31.6232 46.05 31.6232ZM14.0603 29.3732H12.1155C11.8172 29.3732 11.531 29.4917 11.3201 29.7027C11.1091 29.9137 10.9905 30.1998 10.9905 30.4982C10.9905 30.7966 11.1091 31.0827 11.3201 31.2937C11.531 31.5047 11.8172 31.6232 12.1155 31.6232H14.0603C14.3586 31.6232 14.6448 31.5047 14.8557 31.2937C15.0667 31.0827 15.1853 30.7966 15.1853 30.4982C15.1853 30.1998 15.0667 29.9137 14.8557 29.7027C14.6448 29.4917 14.3586 29.3732 14.0603 29.3732ZM72 42.9915V50.358C72 51.8507 71.38 53.1852 70.1595 54.3334V67.4101C70.1595 69.6967 68.2992 71.5569 66.0127 71.5569H34.4458C32.1592 71.5569 30.2989 69.6966 30.2989 67.4101V60.5506C30.2176 60.5513 30.1361 60.5534 30.0551 60.5534C22.0271 60.5534 14.4796 57.4272 8.80284 51.7504C3.12623 46.0738 0 38.5262 0 30.4982C0 13.9258 13.4827 0.443115 30.0552 0.443115C46.6277 0.443115 60.1104 13.9258 60.1104 30.4982C60.1104 32.8016 59.8447 35.0973 59.3258 37.3278C59.3844 37.6126 59.4153 37.9073 59.4153 38.2091V40.318H69.3267C70.8008 40.318 72 41.5173 72 42.9915ZM69.3266 42.568H62.1077L62.1353 46.47C62.1411 47.2838 61.8259 48.0527 61.248 48.6347C60.6656 49.2213 59.8918 49.5443 59.069 49.5443H41.3896C39.7107 49.5443 38.3352 48.1722 38.3233 46.4859L38.2956 42.5682H31.1321C30.9028 42.5682 30.7088 42.7621 30.7088 42.9916V50.3581C30.7088 51.3314 31.1629 52.1573 32.1379 52.9576C32.3803 53.1565 32.6592 53.3561 32.9666 53.5506C35.0823 54.8892 39.7737 55.8717 45.62 56.2151C46.3268 54.3565 48.1259 53.0317 50.2296 53.0317C52.3322 53.0317 54.1305 54.3552 54.838 56.2125C60.6921 55.8661 65.3839 54.8845 67.4924 53.5506C67.7994 53.3564 68.0773 53.1575 68.3187 52.9597L68.32 52.9587L68.321 52.9578C69.2961 52.1575 69.7501 51.3314 69.7501 50.3581V42.9916C69.75 42.762 69.5561 42.568 69.3266 42.568ZM47.549 57.9618C47.549 59.4398 48.7513 60.6422 50.2294 60.6422C51.7073 60.6422 52.9097 59.4398 52.9097 57.9618C52.9097 56.4839 51.7074 55.2814 50.2294 55.2814C48.7515 55.2814 47.549 56.4839 47.549 57.9618ZM51.462 30.4982C51.462 18.6944 41.8589 9.09141 30.0551 9.09141C18.2513 9.09141 8.64844 18.6944 8.64844 30.4982C8.64844 41.8412 17.5167 51.1501 28.6837 51.8598C28.5342 51.3792 28.4588 50.8781 28.4588 50.3578V42.9913C28.4588 41.5173 29.6581 40.3179 31.1321 40.3179H41.0438V38.209C41.0438 35.8055 42.9992 33.8503 45.4026 33.8503H51.1992C51.3736 32.7414 51.4615 31.6207 51.462 30.4982ZM54.3025 38.9631H46.1565V40.318H54.3025V38.9631ZM40.5457 42.568L40.5733 46.47C40.5764 46.9245 40.9425 47.2942 41.3896 47.2942H59.0693C59.1777 47.2941 59.2851 47.2725 59.385 47.2304C59.485 47.1884 59.5756 47.1269 59.6516 47.0495C59.8039 46.8959 59.887 46.6958 59.8856 46.4859L59.8579 42.568H40.5457ZM57.1652 40.318V38.2091C57.1652 37.0463 56.2192 36.1004 55.0565 36.1004H45.4025C44.2396 36.1004 43.2937 37.0464 43.2937 38.2091V40.318H43.9064V38.2091C43.9064 37.3843 44.5774 36.7131 45.4025 36.7131H55.0565C55.8813 36.7131 56.5523 37.3842 56.5523 38.2091V40.318H57.1652ZM30.2989 58.3005V54.3329C30.2361 54.2738 30.1745 54.2143 30.1148 54.1541C30.0949 54.1541 30.075 54.155 30.0551 54.155C17.0107 54.155 6.3983 43.5426 6.3983 30.4981C6.3983 17.4537 17.0107 6.84127 30.0551 6.84127C43.0995 6.84127 53.712 17.4537 53.712 30.4981C53.712 31.6197 53.6325 32.7423 53.4753 33.8503H55.0567C55.9501 33.8495 56.8218 34.125 57.5526 34.6389C57.7575 33.2681 57.8604 31.8841 57.8603 30.4981C57.8603 15.1664 45.387 2.69297 30.0551 2.69297C14.7232 2.69297 2.25 15.1666 2.25 30.4982C2.25 45.83 14.7233 58.3034 30.0552 58.3034C30.1361 58.3034 30.2178 58.3012 30.2989 58.3005ZM67.9095 67.41V55.8906C65.2913 57.1929 60.7501 58.1043 55.1354 58.4485C54.8902 60.9394 52.7837 62.892 50.2294 62.892C47.676 62.892 45.57 60.9408 45.3234 58.4512C39.7138 58.1098 35.1721 57.1974 32.5489 55.8909V67.41C32.5489 68.456 33.3998 69.3068 34.4458 69.3068H66.0127C67.0586 69.3069 67.9095 68.456 67.9095 67.41Z" fill="white"/>
</g>
</g>
<defs>
<clipPath id="clip0_171_5262">
<rect width="72" height="72" fill="white"/>
</clipPath>
</defs>
</svg>
