<svg width="73" height="72" viewBox="0 0 73 72" fill="none" xmlns="http://www.w3.org/2000/svg">
<g id="Icon">
<g id="Icon Vector">
<path id="Vector" d="M68.0505 69.5731H66.0281V6.06741C66.0281 5.74558 65.9002 5.43693 65.6727 5.20937C65.4451 4.9818 65.1365 4.85395 64.8146 4.85395H42.1629C42.0035 4.85393 41.8457 4.88531 41.6985 4.94628C41.5513 5.00726 41.4175 5.09664 41.3048 5.20932C41.1921 5.32201 41.1027 5.45578 41.0418 5.60302C40.9808 5.75025 40.9494 5.90805 40.9494 6.06741V11.3258H38.5225V6.06741C38.5225 5.74558 38.3947 5.43693 38.1671 5.20937C37.9395 4.9818 37.6309 4.85395 37.3091 4.85395H32.0505V1.21345C32.0505 0.543094 31.5072 0 30.8371 0C30.167 0 29.6236 0.543094 29.6236 1.21345V4.85395H24.3652C24.2059 4.85393 24.0481 4.88531 23.9009 4.94628C23.7536 5.00726 23.6198 5.09664 23.5072 5.20932C23.3945 5.32201 23.3051 5.45578 23.2441 5.60302C23.1831 5.75025 23.1518 5.90805 23.1518 6.06741V11.3258H19.5113C19.3519 11.3258 19.1941 11.3572 19.0469 11.4181C18.8997 11.4791 18.7659 11.5685 18.6532 11.6812C18.5405 11.7939 18.4511 11.9276 18.3902 12.0749C18.3292 12.2221 18.2978 12.3799 18.2978 12.5392V22.6516H8.1855C8.02614 22.6516 7.86834 22.6829 7.72111 22.7439C7.57387 22.8049 7.4401 22.8943 7.32741 23.007C7.21473 23.1196 7.12535 23.2534 7.06437 23.4007C7.0034 23.5479 6.97202 23.7057 6.97204 23.865V69.573H4.94929C4.27907 69.573 3.73584 70.116 3.73584 70.7864C3.73584 71.4568 4.27921 72 4.94929 72H68.0505C68.7208 72 69.264 71.4569 69.264 70.7865C69.264 70.1162 68.7206 69.5731 68.0505 69.5731ZM25.5786 7.28086H36.0953V11.3258H25.5786V7.28086ZM21.5336 69.5731H20.7246V67.5506C20.7246 66.8803 20.1812 66.3372 19.5112 66.3372C18.8411 66.3372 18.2977 66.8803 18.2977 67.5506V69.5731H17.4887V65.5282H21.5336V69.5731ZM29.6235 38.4269V69.5731H23.9605V64.3147C23.9605 63.9929 23.8327 63.6842 23.6051 63.4567C23.3775 63.2291 23.0689 63.1012 22.7471 63.1012H16.2752C16.1159 63.1012 15.9581 63.1326 15.8108 63.1936C15.6636 63.2546 15.5298 63.3439 15.4171 63.4566C15.3045 63.5693 15.2151 63.7031 15.1541 63.8503C15.0931 63.9975 15.0618 64.1553 15.0618 64.3147V69.5731H9.39881V25.0786H29.6235V38.4269ZM30.8369 22.6517H20.7246V13.7528H40.9493V37.2135H32.0505V33.1685H35.691C36.3613 33.1685 36.9045 32.6254 36.9045 31.9551C36.9045 31.2847 36.3611 30.7416 35.691 30.7416H32.0505V26.6967H35.691C36.3613 26.6967 36.9045 26.1536 36.9045 25.4832C36.9045 24.8129 36.3611 24.2698 35.691 24.2698H32.0505V23.8653C32.0506 23.706 32.0192 23.5481 31.9582 23.4009C31.8972 23.2536 31.8078 23.1198 31.6951 23.0071C31.5824 22.8944 31.4486 22.8051 31.3014 22.7441C31.1541 22.6831 30.9963 22.6517 30.8369 22.6517ZM52.2752 69.5731H32.0505V39.6405H52.2752V69.5731ZM63.601 69.5731H54.7021V36.8089C54.7021 36.1385 54.1588 35.5954 53.4887 35.5954C52.8186 35.5954 52.2752 36.1385 52.2752 36.8089V37.2133H49.8483V36.8089C49.8483 36.1385 49.305 35.5954 48.6349 35.5954C47.9648 35.5954 47.4214 36.1385 47.4214 36.8089V37.2133H43.3765V7.28086H63.6012V69.5731H63.601Z" fill="white"/>
<path id="Vector_2" d="M37.309 67.1463C37.6308 67.1463 37.9395 67.0184 38.167 66.7909C38.3946 66.5633 38.5224 66.2547 38.5225 65.9329V43.2813C38.5225 42.6109 37.9791 42.0678 37.309 42.0678C36.639 42.0678 36.0956 42.6109 36.0956 43.2813V65.933C36.0956 66.0924 36.127 66.2501 36.188 66.3974C36.2489 66.5446 36.3383 66.6783 36.451 66.791C36.5637 66.9037 36.6975 66.993 36.8447 67.054C36.9919 67.115 37.1497 67.1463 37.309 67.1463ZM42.163 67.1463C42.4848 67.1463 42.7934 67.0184 43.021 66.7909C43.2485 66.5633 43.3764 66.2547 43.3764 65.9329V43.2813C43.3764 42.6109 42.8331 42.0678 42.163 42.0678C41.4929 42.0678 40.9495 42.6109 40.9495 43.2813V65.933C40.9495 66.0924 40.9809 66.2501 41.0419 66.3974C41.1029 66.5446 41.1923 66.6783 41.305 66.791C41.4176 66.9037 41.5514 66.993 41.6986 67.054C41.8459 67.115 42.0036 67.1463 42.163 67.1463ZM47.0168 67.1463C47.3386 67.1463 47.6472 67.0184 47.8748 66.7909C48.1024 66.5633 48.2302 66.2547 48.2303 65.9329V43.2813C48.2303 42.6109 47.6869 42.0678 47.0168 42.0678C46.3467 42.0678 45.8033 42.6109 45.8033 43.2813V65.933C45.8034 66.2548 45.9312 66.5634 46.1588 66.791C46.3864 67.0185 46.695 67.1463 47.0168 67.1463ZM48.6348 15.3707C48.7942 15.3707 48.952 15.3394 49.0992 15.2784C49.2465 15.2174 49.3802 15.128 49.4929 15.0154C49.6056 14.9027 49.695 14.7689 49.756 14.6217C49.8169 14.4744 49.8483 14.3166 49.8483 14.1573V12.5394C49.8483 11.869 49.3049 11.3259 48.6348 11.3259C47.9648 11.3259 47.4214 11.869 47.4214 12.5394V14.1574C47.4214 14.3168 47.4528 14.4745 47.5137 14.6218C47.5747 14.769 47.6641 14.9027 47.7768 15.0154C47.8895 15.1281 48.0233 15.2174 48.1705 15.2784C48.3177 15.3394 48.4755 15.3707 48.6348 15.3707ZM53.4888 15.3707C53.6481 15.3707 53.8059 15.3394 53.9532 15.2784C54.1004 15.2174 54.2342 15.128 54.3469 15.0154C54.4595 14.9027 54.5489 14.7689 54.6099 14.6217C54.6709 14.4744 54.7023 14.3166 54.7022 14.1573V12.5394C54.7022 11.869 54.1589 11.3259 53.4888 11.3259C52.8187 11.3259 52.2753 11.869 52.2753 12.5394V14.1574C52.2753 14.3168 52.3067 14.4745 52.3677 14.6218C52.4287 14.769 52.5181 14.9027 52.6307 15.0154C52.7434 15.1281 52.8772 15.2174 53.0244 15.2784C53.1716 15.3394 53.3294 15.3707 53.4888 15.3707ZM58.3427 15.3707C58.5021 15.3707 58.6599 15.3394 58.8071 15.2784C58.9544 15.2174 59.0881 15.128 59.2008 15.0154C59.3135 14.9027 59.4029 14.7689 59.4639 14.6217C59.5248 14.4744 59.5562 14.3166 59.5562 14.1573V12.5394C59.5562 11.869 59.0128 11.3259 58.3427 11.3259C57.6727 11.3259 57.1293 11.869 57.1293 12.5394V14.1574C57.1293 14.3168 57.1607 14.4745 57.2217 14.6218C57.2826 14.769 57.372 14.9027 57.4847 15.0154C57.5974 15.1281 57.7312 15.2174 57.8784 15.2784C58.0256 15.3394 58.1834 15.3707 58.3427 15.3707ZM48.6348 23.4606C48.7942 23.4606 48.952 23.4292 49.0992 23.3683C49.2465 23.3073 49.3802 23.2179 49.4929 23.1052C49.6056 22.9925 49.695 22.8588 49.756 22.7115C49.8169 22.5643 49.8483 22.4065 49.8483 22.2471V20.6291C49.8483 19.9588 49.3049 19.4157 48.6348 19.4157C47.9648 19.4157 47.4214 19.9588 47.4214 20.6291V22.2471C47.4214 22.4065 47.4527 22.5643 47.5137 22.7115C47.5747 22.8588 47.6641 22.9925 47.7768 23.1052C47.8894 23.2179 48.0232 23.3073 48.1704 23.3683C48.3177 23.4292 48.4755 23.4606 48.6348 23.4606ZM53.4888 23.4606C53.6481 23.4606 53.8059 23.4292 53.9532 23.3683C54.1004 23.3073 54.2342 23.2179 54.3469 23.1052C54.4595 22.9925 54.5489 22.8588 54.6099 22.7115C54.6709 22.5643 54.7023 22.4065 54.7022 22.2471V20.6291C54.7022 19.9588 54.1589 19.4157 53.4888 19.4157C52.8187 19.4157 52.2753 19.9588 52.2753 20.6291V22.2471C52.2753 22.4065 52.3067 22.5643 52.3677 22.7115C52.4286 22.8588 52.518 22.9925 52.6307 23.1052C52.7434 23.2179 52.8772 23.3073 53.0244 23.3683C53.1716 23.4292 53.3294 23.4606 53.4888 23.4606ZM58.3427 23.4606C58.5021 23.4606 58.6599 23.4292 58.8071 23.3683C58.9544 23.3073 59.0881 23.2179 59.2008 23.1052C59.3135 22.9925 59.4029 22.8588 59.4639 22.7115C59.5248 22.5643 59.5562 22.4065 59.5562 22.2471V20.6291C59.5562 19.9588 59.0128 19.4157 58.3427 19.4157C57.6727 19.4157 57.1293 19.9588 57.1293 20.6291V22.2471C57.1293 22.4065 57.1606 22.5643 57.2216 22.7115C57.2826 22.8588 57.372 22.9925 57.4847 23.1052C57.5973 23.2179 57.7311 23.3073 57.8784 23.3683C58.0256 23.4292 58.1834 23.4606 58.3427 23.4606ZM48.6348 31.5506C48.7942 31.5506 48.952 31.5193 49.0992 31.4583C49.2465 31.3973 49.3802 31.3079 49.4929 31.1952C49.6056 31.0826 49.695 30.9488 49.756 30.8015C49.8169 30.6543 49.8483 30.4965 49.8483 30.3372V28.7191C49.8483 28.0488 49.3049 27.5057 48.6348 27.5057C47.9648 27.5057 47.4214 28.0488 47.4214 28.7191V30.3372C47.4214 30.659 47.5492 30.9676 47.7768 31.1952C48.0044 31.4228 48.313 31.5506 48.6348 31.5506ZM53.4888 31.5506C53.6481 31.5506 53.8059 31.5193 53.9532 31.4583C54.1004 31.3973 54.2342 31.3079 54.3469 31.1952C54.4595 31.0826 54.5489 30.9488 54.6099 30.8015C54.6709 30.6543 54.7023 30.4965 54.7022 30.3372V28.7191C54.7022 28.0488 54.1589 27.5057 53.4888 27.5057C52.8187 27.5057 52.2753 28.0488 52.2753 28.7191V30.3372C52.2753 30.659 52.4032 30.9676 52.6307 31.1952C52.8583 31.4228 53.167 31.5506 53.4888 31.5506ZM58.3427 31.5506C58.5021 31.5506 58.6599 31.5193 58.8071 31.4583C58.9544 31.3973 59.0881 31.3079 59.2008 31.1952C59.3135 31.0826 59.4029 30.9488 59.4639 30.8015C59.5248 30.6543 59.5562 30.4965 59.5562 30.3372V28.7191C59.5562 28.0488 59.0128 27.5057 58.3427 27.5057C57.6727 27.5057 57.1293 28.0488 57.1293 28.7191V30.3372C57.1293 30.659 57.2571 30.9676 57.4847 31.1952C57.7123 31.4228 58.0209 31.5506 58.3427 31.5506ZM14.6573 34.7865C14.8167 34.7866 14.9745 34.7552 15.1217 34.6942C15.2689 34.6332 15.4027 34.5438 15.5154 34.4312C15.6281 34.3185 15.7174 34.1847 15.7784 34.0375C15.8394 33.8902 15.8708 33.7324 15.8708 33.5731V31.9551C15.8708 31.2847 15.3274 30.7416 14.6573 30.7416C13.9872 30.7416 13.4438 31.2847 13.4438 31.9551V33.5731C13.4439 33.8949 13.5717 34.2035 13.7993 34.4311C14.0269 34.6586 14.3355 34.7865 14.6573 34.7865ZM19.5113 34.7865C19.6706 34.7866 19.8284 34.7552 19.9756 34.6942C20.1229 34.6332 20.2567 34.5438 20.3693 34.4312C20.482 34.3185 20.5714 34.1847 20.6324 34.0375C20.6934 33.8902 20.7247 33.7324 20.7247 33.5731V31.9551C20.7247 31.2847 20.1813 30.7416 19.5113 30.7416C18.8412 30.7416 18.2978 31.2847 18.2978 31.9551V33.5731C18.2978 33.8949 18.4256 34.2036 18.6532 34.4311C18.8808 34.6587 19.1894 34.7865 19.5113 34.7865ZM24.3652 34.7865C24.5246 34.7866 24.6824 34.7552 24.8296 34.6942C24.9768 34.6332 25.1106 34.5438 25.2233 34.4312C25.336 34.3185 25.4254 34.1847 25.4863 34.0375C25.5473 33.8902 25.5787 33.7324 25.5787 33.5731V31.9551C25.5787 31.2847 25.0353 30.7416 24.3652 30.7416C23.6951 30.7416 23.1518 31.2847 23.1518 31.9551V33.5731C23.1518 33.8949 23.2796 34.2036 23.5072 34.4311C23.7347 34.6587 24.0434 34.7865 24.3652 34.7865ZM14.6573 42.8764C14.8167 42.8764 14.9745 42.8451 15.1217 42.7841C15.2689 42.7231 15.4027 42.6337 15.5154 42.521C15.6281 42.4084 15.7174 42.2746 15.7784 42.1273C15.8394 41.9801 15.8708 41.8223 15.8708 41.663V40.0449C15.8708 39.3746 15.3274 38.8315 14.6573 38.8315C13.9872 38.8315 13.4438 39.3746 13.4438 40.0449V41.663C13.4439 41.9848 13.5717 42.2934 13.7993 42.521C14.0269 42.7485 14.3355 42.8764 14.6573 42.8764ZM19.5113 42.8764C19.6706 42.8764 19.8284 42.8451 19.9756 42.7841C20.1229 42.7231 20.2567 42.6337 20.3693 42.521C20.482 42.4084 20.5714 42.2746 20.6324 42.1273C20.6934 41.9801 20.7247 41.8223 20.7247 41.663V40.0449C20.7247 39.3746 20.1813 38.8315 19.5113 38.8315C18.8412 38.8315 18.2978 39.3746 18.2978 40.0449V41.663C18.2978 41.9848 18.4256 42.2934 18.6532 42.521C18.8808 42.7486 19.1894 42.8764 19.5113 42.8764ZM24.3652 42.8764C24.5246 42.8764 24.6824 42.8451 24.8296 42.7841C24.9768 42.7231 25.1106 42.6337 25.2233 42.521C25.336 42.4084 25.4254 42.2746 25.4863 42.1273C25.5473 41.9801 25.5787 41.8223 25.5787 41.663V40.0449C25.5787 39.3746 25.0353 38.8315 24.3652 38.8315C23.6951 38.8315 23.1518 39.3746 23.1518 40.0449V41.663C23.1518 41.9848 23.2796 42.2934 23.5072 42.521C23.7347 42.7486 24.0434 42.8764 24.3652 42.8764ZM14.6573 50.9663C14.8167 50.9663 14.9745 50.9349 15.1217 50.874C15.2689 50.813 15.4027 50.7236 15.5154 50.6109C15.6281 50.4982 15.7174 50.3645 15.7784 50.2172C15.8394 50.07 15.8708 49.9122 15.8708 49.7528V48.1348C15.8708 47.4644 15.3274 46.9213 14.6573 46.9213C13.9872 46.9213 13.4438 47.4644 13.4438 48.1348V49.7528C13.4438 49.9122 13.4752 50.07 13.5362 50.2172C13.5972 50.3644 13.6866 50.4982 13.7993 50.6109C13.9119 50.7236 14.0457 50.8129 14.1929 50.8739C14.3402 50.9349 14.4979 50.9663 14.6573 50.9663ZM19.5113 50.9663C19.6706 50.9663 19.8284 50.9349 19.9756 50.874C20.1229 50.813 20.2567 50.7236 20.3693 50.6109C20.482 50.4982 20.5714 50.3645 20.6324 50.2172C20.6934 50.07 20.7247 49.9122 20.7247 49.7528V48.1348C20.7247 47.4644 20.1813 46.9213 19.5113 46.9213C18.8412 46.9213 18.2978 47.4644 18.2978 48.1348V49.7528C18.2978 49.9122 18.3292 50.07 18.3901 50.2172C18.4511 50.3645 18.5405 50.4982 18.6532 50.6109C18.7659 50.7236 18.8996 50.813 19.0469 50.874C19.1941 50.9349 19.3519 50.9663 19.5113 50.9663ZM24.3652 50.9663C24.5246 50.9663 24.6824 50.9349 24.8296 50.874C24.9768 50.813 25.1106 50.7236 25.2233 50.6109C25.336 50.4982 25.4254 50.3645 25.4863 50.2172C25.5473 50.07 25.5787 49.9122 25.5787 49.7528V48.1348C25.5787 47.4644 25.0353 46.9213 24.3652 46.9213C23.6951 46.9213 23.1518 47.4644 23.1518 48.1348V49.7528C23.1517 49.9122 23.1831 50.07 23.2441 50.2172C23.3051 50.3645 23.3944 50.4982 23.5071 50.6109C23.6198 50.7236 23.7536 50.813 23.9008 50.874C24.048 50.9349 24.2058 50.9663 24.3652 50.9663ZM14.6573 59.0562C14.8167 59.0562 14.9745 59.0248 15.1217 58.9638C15.2689 58.9029 15.4027 58.8135 15.5154 58.7008C15.6281 58.5881 15.7174 58.4543 15.7784 58.3071C15.8394 58.1599 15.8708 58.0021 15.8708 57.8427V56.2247C15.8708 55.5543 15.3274 55.0112 14.6573 55.0112C13.9872 55.0112 13.4438 55.5543 13.4438 56.2247V57.8427C13.4438 58.1645 13.5717 58.4732 13.7993 58.7007C14.0268 58.9283 14.3355 59.0562 14.6573 59.0562ZM19.5113 59.0562C19.6706 59.0562 19.8284 59.0248 19.9756 58.9638C20.1229 58.9029 20.2567 58.8135 20.3693 58.7008C20.482 58.5881 20.5714 58.4543 20.6324 58.3071C20.6934 58.1599 20.7247 58.0021 20.7247 57.8427V56.2247C20.7247 55.5543 20.1813 55.0112 19.5113 55.0112C18.8412 55.0112 18.2978 55.5543 18.2978 56.2247V57.8427C18.2978 58.0021 18.3292 58.1599 18.3901 58.3071C18.4511 58.4543 18.5405 58.5881 18.6532 58.7008C18.7659 58.8135 18.8996 58.9029 19.0469 58.9638C19.1941 59.0248 19.3519 59.0562 19.5113 59.0562ZM24.3652 59.0562C24.5246 59.0562 24.6824 59.0248 24.8296 58.9638C24.9768 58.9029 25.1106 58.8135 25.2233 58.7008C25.336 58.5881 25.4254 58.4543 25.4863 58.3071C25.5473 58.1599 25.5787 58.0021 25.5787 57.8427V56.2247C25.5787 55.5543 25.0353 55.0112 24.3652 55.0112C23.6951 55.0112 23.1518 55.5543 23.1518 56.2247V57.8427C23.1517 58.0021 23.1831 58.1599 23.2441 58.3071C23.3051 58.4543 23.3944 58.5881 23.5071 58.7008C23.6198 58.8135 23.7536 58.9029 23.9008 58.9638C24.048 59.0248 24.2058 59.0562 24.3652 59.0562ZM58.3427 39.6405C58.5021 39.6405 58.6599 39.6091 58.8071 39.5482C58.9544 39.4872 59.0881 39.3978 59.2008 39.2851C59.3135 39.1724 59.4029 39.0387 59.4639 38.8914C59.5248 38.7442 59.5562 38.5864 59.5562 38.427V36.809C59.5562 36.1386 59.0128 35.5956 58.3427 35.5956C57.6727 35.5956 57.1293 36.1386 57.1293 36.809V38.427C57.1293 38.7489 57.2571 39.0575 57.4847 39.2851C57.7123 39.5126 58.0209 39.6405 58.3427 39.6405ZM58.3427 47.7304C58.5021 47.7304 58.6599 47.699 58.8071 47.638C58.9544 47.5771 59.0881 47.4877 59.2008 47.375C59.3135 47.2623 59.4029 47.1285 59.4639 46.9813C59.5248 46.8341 59.5562 46.6763 59.5562 46.5169V44.8989C59.5562 44.2285 59.0128 43.6854 58.3427 43.6854C57.6727 43.6854 57.1293 44.2285 57.1293 44.8989V46.5169C57.1293 46.8387 57.2571 47.1474 57.4847 47.375C57.7123 47.6025 58.0209 47.7304 58.3427 47.7304ZM58.3427 55.8202C58.5021 55.8203 58.6599 55.7889 58.8071 55.7279C58.9544 55.6669 59.0881 55.5776 59.2008 55.4649C59.3135 55.3522 59.4029 55.2184 59.4639 55.0712C59.5248 54.9239 59.5562 54.7661 59.5562 54.6068V52.9888C59.5562 52.3184 59.0128 51.7753 58.3427 51.7753C57.6727 51.7753 57.1293 52.3184 57.1293 52.9888V54.6068C57.1293 54.7661 57.1607 54.9239 57.2217 55.0712C57.2826 55.2184 57.372 55.3521 57.4847 55.4648C57.5974 55.5775 57.7311 55.6669 57.8784 55.7279C58.0256 55.7889 58.1834 55.8202 58.3427 55.8202ZM58.3427 63.9101C58.5021 63.9101 58.6599 63.8788 58.8071 63.8178C58.9544 63.7568 59.0881 63.6674 59.2008 63.5547C59.3135 63.4421 59.4029 63.3083 59.4639 63.161C59.5248 63.0138 59.5562 62.856 59.5562 62.6967V61.0786C59.5562 60.4083 59.0128 59.8652 58.3427 59.8652C57.6727 59.8652 57.1293 60.4083 57.1293 61.0786V62.6967C57.1293 63.0185 57.2571 63.3271 57.4847 63.5547C57.7123 63.7823 58.0209 63.9101 58.3427 63.9101ZM36.9045 19.0112C36.9045 18.6894 36.7766 18.3807 36.549 18.1532C36.3215 17.9256 36.0128 17.7978 35.691 17.7978H25.9831C25.8237 17.7978 25.6659 17.8291 25.5187 17.8901C25.3715 17.9511 25.2377 18.0405 25.125 18.1531C25.0123 18.2658 24.9229 18.3996 24.862 18.5468C24.801 18.6941 24.7696 18.8519 24.7696 19.0112C24.7696 19.3331 24.8975 19.6417 25.1251 19.8693C25.3526 20.0968 25.6613 20.2247 25.9831 20.2247H35.691C35.8504 20.2247 36.0082 20.1933 36.1554 20.1323C36.3026 20.0714 36.4364 19.982 36.5491 19.8693C36.6618 19.7566 36.7512 19.6228 36.8121 19.4756C36.8731 19.3284 36.9045 19.1706 36.9045 19.0112Z" fill="white"/>
</g>
</g>
</svg>
