<svg width="33" height="32" viewBox="0 0 33 32" fill="none" xmlns="http://www.w3.org/2000/svg">
<g id="LocationMarkerOutline">
<path id="Vector" d="M24.3285 22.2114L18.6711 27.8687C18.4237 28.1164 18.1299 28.3128 17.8066 28.4469C17.4832 28.5809 17.1365 28.6499 16.7865 28.6499C16.4364 28.6499 16.0898 28.5809 15.7664 28.4469C15.443 28.3128 15.1492 28.1164 14.9018 27.8687L9.24315 22.2114C7.75144 20.7196 6.73559 18.819 6.32406 16.7499C5.91253 14.6808 6.1238 12.5361 6.93115 10.587C7.7385 8.63798 9.10567 6.9721 10.8598 5.80006C12.6139 4.62802 14.6762 4.00244 16.7858 4.00244C18.8955 4.00244 20.9577 4.62802 22.7118 5.80006C24.466 6.9721 25.8331 8.63798 26.6405 10.587C27.4478 12.5361 27.6591 14.6808 27.2476 16.7499C26.836 18.819 25.8202 20.7196 24.3285 22.2114Z" stroke="white" stroke-width="2" stroke-linecap="round" stroke-linejoin="round"/>
<path id="Vector_2" d="M20.7861 14.6687C20.7861 15.7296 20.3647 16.747 19.6146 17.4971C18.8644 18.2473 17.847 18.6687 16.7861 18.6687C15.7253 18.6687 14.7079 18.2473 13.9577 17.4971C13.2076 16.747 12.7861 15.7296 12.7861 14.6687C12.7861 13.6078 13.2076 12.5904 13.9577 11.8403C14.7079 11.0901 15.7253 10.6687 16.7861 10.6687C17.847 10.6687 18.8644 11.0901 19.6146 11.8403C20.3647 12.5904 20.7861 13.6078 20.7861 14.6687Z" stroke="white" stroke-width="2" stroke-linecap="round" stroke-linejoin="round"/>
</g>
</svg>
