<svg width="20" height="21" viewBox="0 0 20 21" fill="none" xmlns="http://www.w3.org/2000/svg">
<g id="location">
<path id="Vector" d="M10.4666 17.8506C10.1872 18.0498 9.81276 18.0498 9.53341 17.8506C5.50948 14.9811 1.23798 9.08092 5.55558 4.81773C6.73432 3.65386 8.33302 3 10 3C11.667 3 13.2657 3.65386 14.4444 4.81773C18.762 9.08092 14.4905 14.9811 10.4666 17.8506Z" stroke="#4B5563" stroke-width="1.5" stroke-linecap="round" stroke-linejoin="round"/>
<path id="Vector_2" d="M10.0002 10.5C10.9206 10.5 11.6668 9.75377 11.6668 8.83329C11.6668 7.91282 10.9206 7.16663 10.0002 7.16663C9.07969 7.16663 8.3335 7.91282 8.3335 8.83329C8.3335 9.75377 9.07969 10.5 10.0002 10.5Z" stroke="#4B5563" stroke-width="1.5" stroke-linecap="round" stroke-linejoin="round"/>
</g>
</svg>
