<svg width="33" height="33" viewBox="0 0 33 33" fill="none" xmlns="http://www.w3.org/2000/svg">
<g id="MailOutline">
<path id="Vector" d="M4.85352 10.9375L15.3735 17.9508C15.8117 18.2432 16.3267 18.3992 16.8535 18.3992C17.3803 18.3992 17.8953 18.2432 18.3335 17.9508L28.8535 10.9375M7.52018 25.6042H26.1868C26.8941 25.6042 27.5724 25.3232 28.0725 24.8231C28.5726 24.323 28.8535 23.6447 28.8535 22.9375V9.60417C28.8535 8.89692 28.5726 8.21865 28.0725 7.71855C27.5724 7.21845 26.8941 6.9375 26.1868 6.9375H7.52018C6.81294 6.9375 6.13466 7.21845 5.63456 7.71855C5.13447 8.21865 4.85352 8.89692 4.85352 9.60417V22.9375C4.85352 23.6447 5.13447 24.323 5.63456 24.8231C6.13466 25.3232 6.81294 25.6042 7.52018 25.6042Z" stroke="white" stroke-width="2" stroke-linecap="round" stroke-linejoin="round"/>
</g>
</svg>
