<svg width="24" height="24" viewBox="0 0 24 24" fill="none" xmlns="http://www.w3.org/2000/svg">
<g id="mdi:youtube">
<path id="Vector" d="M10.125 14.8125L14.9906 12L10.125 9.1875V14.8125ZM20.9625 7.47187C21.0844 7.9125 21.1688 8.50312 21.225 9.25312C21.2906 10.0031 21.3188 10.65 21.3188 11.2125L21.375 12C21.375 14.0531 21.225 15.5625 20.9625 16.5281C20.7281 17.3719 20.1844 17.9156 19.3406 18.15C18.9 18.2719 18.0938 18.3562 16.8563 18.4125C15.6375 18.4781 14.5219 18.5062 13.4906 18.5062L12 18.5625C8.07188 18.5625 5.625 18.4125 4.65938 18.15C3.81563 17.9156 3.27188 17.3719 3.0375 16.5281C2.91563 16.0875 2.83125 15.4969 2.775 14.7469C2.70938 13.9969 2.68125 13.35 2.68125 12.7875L2.625 12C2.625 9.94687 2.775 8.4375 3.0375 7.47187C3.27188 6.62813 3.81563 6.08438 4.65938 5.85C5.1 5.72813 5.90625 5.64375 7.14375 5.5875C8.3625 5.52187 9.47812 5.49375 10.5094 5.49375L12 5.4375C15.9281 5.4375 18.375 5.5875 19.3406 5.85C20.1844 6.08438 20.7281 6.62813 20.9625 7.47187Z" fill="white"/>
</g>
</svg>
