<svg width="64" height="64" viewBox="0 0 64 64" fill="none" xmlns="http://www.w3.org/2000/svg">
<path d="M32 60C36.8229 59.9999 41.5641 58.7541 45.764 56.3832C49.964 54.0123 53.4803 50.5967 55.9723 46.4675C58.4643 42.3383 59.8474 37.6353 59.9877 32.8145C60.128 27.9936 59.0207 23.2182 56.773 18.951C56.6458 18.722 56.4338 18.552 56.1826 18.4777C55.9314 18.4033 55.6611 18.4305 55.4297 18.5534C55.1983 18.6763 55.0244 18.885 54.9454 19.1348C54.8664 19.3846 54.8885 19.6554 55.007 19.889C56.9756 23.6222 58.003 27.7796 58 32C56.575 66.487 7.42502 66.487 6.00002 32C5.76002 12.718 27.2 -0.205995 44.112 8.99401C44.228 9.05553 44.355 9.0936 44.4858 9.10604C44.6165 9.11848 44.7484 9.10505 44.874 9.06651C44.9995 9.02798 45.1162 8.96509 45.2175 8.88144C45.3187 8.7978 45.4025 8.69503 45.464 8.57901C45.5255 8.46298 45.5636 8.33598 45.5761 8.20524C45.5885 8.07451 45.5751 7.9426 45.5365 7.81706C45.498 7.69151 45.4351 7.57479 45.3515 7.47354C45.2678 7.3723 45.165 7.28853 45.049 7.22701C41.0269 5.10507 36.5475 3.99732 32 4C-5.13998 5.535 -5.13998 58.466 32 60Z" fill="#1F2937"/>
<path d="M32.0001 24C32.8658 23.9994 33.7256 24.143 34.5441 24.425C34.7949 24.5113 35.0697 24.4945 35.308 24.3782C35.5464 24.2619 35.7288 24.0558 35.8151 23.805C36.2551 22.038 33.1401 22.108 32.0001 22C18.7351 22.548 18.7361 41.452 32.0001 42C34.6514 41.9971 37.1933 40.9426 39.068 39.0679C40.9427 37.1931 41.9972 34.6513 42.0001 32C41.8981 30.84 41.9651 27.757 40.2041 28.195C39.9536 28.2813 39.7476 28.4636 39.6314 28.7017C39.5151 28.9398 39.4981 29.2144 39.5841 29.465C39.8627 30.281 40.0033 31.1378 40.0001 32C39.5991 42.597 24.4001 42.597 24.0001 32C24.0028 29.8791 24.8465 27.8458 26.3462 26.3461C27.8459 24.8464 29.8792 24.0026 32.0001 24Z" fill="#1F2937"/>
<path d="M41.5751 16.735C41.6389 16.6201 41.6794 16.4938 41.6943 16.3632C41.7092 16.2327 41.6982 16.1005 41.662 15.9742C41.6257 15.8479 41.565 15.7299 41.4832 15.6271C41.4014 15.5243 41.3001 15.4386 41.1851 15.375C38.3737 13.819 35.2134 13.0018 32.0001 13C6.79813 14.042 6.79813 49.959 32.0001 51C35.3053 51.002 38.5537 50.1412 41.4242 48.5028C44.2947 46.8645 46.6879 44.5053 48.3671 41.6585C50.0463 38.8116 50.9534 35.5758 50.9986 32.271C51.0439 28.9662 50.2258 25.7067 48.6251 22.815C48.4965 22.5829 48.281 22.4115 48.0259 22.3383C47.7709 22.2652 47.4972 22.2964 47.2651 22.425C47.0331 22.5536 46.8616 22.7692 46.7885 23.0242C46.7153 23.2793 46.7465 23.5529 46.8751 23.785C53.2151 34.777 44.7001 49.22 32.0001 49C27.493 48.995 23.1719 47.2023 19.9849 44.0153C16.7978 40.8282 15.0052 36.5071 15.0001 32C14.7821 19.301 29.2211 10.785 40.2151 17.125C40.33 17.189 40.4563 17.2297 40.5869 17.2447C40.7175 17.2598 40.8498 17.2489 40.9762 17.2126C41.1026 17.1764 41.2205 17.1155 41.3233 17.0336C41.4261 16.9516 41.5117 16.8501 41.5751 16.735Z" fill="#1F2937"/>
<path d="M43.5239 13.8981L43.8909 18.6951L31.2929 31.2931C31.1108 31.4817 31.01 31.7343 31.0122 31.9965C31.0145 32.2587 31.1197 32.5095 31.3051 32.6949C31.4905 32.8803 31.7413 32.9855 32.0035 32.9877C32.2657 32.99 32.5183 32.8892 32.7069 32.7071L45.3049 20.1091L50.1019 20.4761C50.2456 20.487 50.39 20.4667 50.5251 20.4167C50.6603 20.3666 50.783 20.288 50.8849 20.1861L58.1629 12.9081C58.2952 12.7717 58.3863 12.6007 58.4255 12.4148C58.4648 12.229 58.4506 12.0358 58.3848 11.8576C58.3189 11.6794 58.2039 11.5235 58.0532 11.4078C57.9025 11.2922 57.7221 11.2215 57.5329 11.2041L53.1329 10.8671L52.7959 6.46706C52.7784 6.27788 52.7078 6.09751 52.5922 5.94678C52.4765 5.79605 52.3206 5.6811 52.1424 5.61522C51.9642 5.54934 51.771 5.53521 51.5851 5.57446C51.3992 5.61372 51.2283 5.70475 51.0919 5.83706L43.8139 13.1151C43.7119 13.2169 43.6332 13.3396 43.5831 13.4748C43.533 13.6099 43.5128 13.7543 43.5239 13.8981ZM50.9679 8.78906C51.3679 13.4461 50.5799 12.6261 55.2109 13.0321L49.7959 18.4471L45.8549 18.1451L45.5529 14.2051L50.9679 8.78906Z" fill="#1F2937"/>
</svg>
