<svg width="64" height="64" viewBox="0 0 64 64" fill="none" xmlns="http://www.w3.org/2000/svg">
<path d="M59.8951 36.338C57.0749 31.4446 53.0069 27.3871 48.1062 24.5796C43.2056 21.772 37.6478 20.3149 32.0001 20.357C26.3524 20.3149 20.7946 21.772 15.894 24.5796C10.9934 27.3871 6.92535 31.4446 4.10511 36.338C4.03566 36.4769 3.99951 36.6301 3.99951 36.7855C3.99951 36.9408 4.03566 37.094 4.10511 37.233C6.92535 42.1263 10.9934 46.1838 15.894 48.9914C20.7946 51.7989 26.3524 53.256 32.0001 53.214C37.6478 53.256 43.2056 51.7989 48.1062 48.9914C53.0069 46.1838 57.0749 42.1263 59.8951 37.233C59.9646 37.094 60.0007 36.9408 60.0007 36.7855C60.0007 36.6301 59.9646 36.4769 59.8951 36.338ZM32.0001 51.214C26.8091 51.2583 21.6958 49.9515 17.1626 47.4219C12.6294 44.8923 8.83225 41.227 6.14411 36.786C8.832 32.3446 12.6291 28.6788 17.1623 26.1489C21.6955 23.619 26.8089 22.3118 32.0001 22.356C37.1913 22.3118 42.3047 23.619 46.8379 26.1489C51.3711 28.6788 55.1682 32.3446 57.8561 36.786C55.168 41.227 51.3708 44.8923 46.8376 47.4219C42.3044 49.9515 37.1911 51.2583 32.0001 51.214Z" fill="#1F2937"/>
<path d="M32 30.786C30.8133 30.786 29.6533 31.1379 28.6666 31.7972C27.6799 32.4565 26.9109 33.3936 26.4567 34.4899C26.0026 35.5863 25.8838 36.7927 26.1153 37.9566C26.3468 39.1204 26.9182 40.1895 27.7574 41.0287C28.5965 41.8678 29.6656 42.4392 30.8295 42.6707C31.9933 42.9022 33.1997 42.7834 34.2961 42.3293C35.3925 41.8752 36.3295 41.1061 36.9888 40.1194C37.6481 39.1327 38 37.9727 38 36.786C37.9981 35.1953 37.3654 33.6702 36.2406 32.5454C35.1158 31.4206 33.5907 30.7879 32 30.786ZM32 40.786C31.2089 40.786 30.4355 40.5514 29.7777 40.1119C29.1199 39.6724 28.6072 39.0477 28.3045 38.3167C28.0017 37.5858 27.9225 36.7816 28.0769 36.0056C28.2312 35.2297 28.6122 34.517 29.1716 33.9576C29.731 33.3982 30.4437 33.0172 31.2196 32.8629C31.9956 32.7085 32.7998 32.7877 33.5307 33.0905C34.2616 33.3932 34.8864 33.9059 35.3259 34.5637C35.7654 35.2215 36 35.9949 36 36.786C35.9989 37.8466 35.5772 38.8634 34.8273 39.6133C34.0773 40.3632 33.0605 40.785 32 40.786Z" fill="#1F2937"/>
<path d="M32 24.786C29.6266 24.786 27.3066 25.4898 25.3332 26.8084C23.3598 28.127 21.8217 30.0011 20.9135 32.1938C20.0052 34.3865 19.7676 36.7993 20.2306 39.1271C20.6936 41.4549 21.8365 43.5931 23.5147 45.2713C25.193 46.9495 27.3311 48.0924 29.6589 48.5554C31.9867 49.0185 34.3995 48.7808 36.5922 47.8726C38.7849 46.9643 40.6591 45.4262 41.9776 43.4529C43.2962 41.4795 44 39.1594 44 36.786C43.9966 33.6045 42.7312 30.5542 40.4815 28.3045C38.2318 26.0548 35.1815 24.7895 32 24.786ZM32 46.786C30.0222 46.786 28.0888 46.1995 26.4443 45.1007C24.7998 44.0019 23.5181 42.4401 22.7612 40.6128C22.0043 38.7856 21.8063 36.7749 22.1922 34.8351C22.578 32.8953 23.5304 31.1135 24.9289 29.7149C26.3275 28.3164 28.1093 27.364 30.0491 26.9782C31.9889 26.5923 33.9996 26.7903 35.8268 27.5472C37.6541 28.3041 39.2159 29.5858 40.3147 31.2303C41.4135 32.8748 42 34.8082 42 36.786C41.9971 39.4373 40.9426 41.9791 39.0679 43.8539C37.1931 45.7286 34.6513 46.7831 32 46.786ZM32 17.786C32.2652 17.786 32.5196 17.6807 32.7071 17.4931C32.8946 17.3056 33 17.0512 33 16.786V11.786C33 11.5208 32.8946 11.2664 32.7071 11.0789C32.5196 10.8914 32.2652 10.786 32 10.786C31.7348 10.786 31.4804 10.8914 31.2929 11.0789C31.1054 11.2664 31 11.5208 31 11.786V16.786C31 17.0512 31.1054 17.3056 31.2929 17.4931C31.4804 17.6807 31.7348 17.786 32 17.786ZM14.2 20.386C14.2788 20.4911 14.3775 20.5796 14.4905 20.6465C14.6035 20.7134 14.7286 20.7574 14.8586 20.776C14.9886 20.7945 15.121 20.7873 15.2482 20.7547C15.3754 20.7221 15.4949 20.6648 15.6 20.586C15.7051 20.5072 15.7936 20.4085 15.8605 20.2955C15.9274 20.1825 15.9714 20.0574 15.99 19.9274C16.0085 19.7974 16.0013 19.665 15.9687 19.5378C15.9361 19.4106 15.8788 19.2911 15.8 19.186L12.8 15.186C12.6409 14.9738 12.404 14.8336 12.1414 14.7961C11.8789 14.7586 11.6122 14.8269 11.4 14.986C11.1878 15.1451 11.0476 15.382 11.0101 15.6446C10.9725 15.9071 11.0409 16.1738 11.2 16.386L14.2 20.386ZM48.999 20.786C49.1543 20.7862 49.3074 20.7501 49.4463 20.6806C49.5852 20.6112 49.706 20.5103 49.799 20.386L52.799 16.386C52.9493 16.1735 53.0108 15.9107 52.9704 15.6535C52.93 15.3964 52.791 15.1651 52.5828 15.0088C52.3746 14.8526 52.1136 14.7837 51.8554 14.8167C51.5972 14.8498 51.3621 14.9823 51.2 15.186L48.2 19.186C48.0909 19.3351 48.025 19.5113 48.0094 19.6954C47.9939 19.8795 48.0293 20.0643 48.1118 20.2295C48.1944 20.3948 48.3208 20.5342 48.4773 20.6323C48.6338 20.7305 48.8143 20.7837 48.999 20.786Z" fill="#1F2937"/>
</svg>
